<?xml version="1.0" encoding="UTF-8"?>
<svg id="Layer_1" data-name="Layer 1" xmlns="http://www.w3.org/2000/svg" viewBox="0 0 627.76 855.39">
  <defs>
    <style>
      .cls-1 {
        fill: none;
      }

      .cls-1, .cls-2, .cls-3, .cls-4 {
        stroke-miterlimit: 10;
      }

      .cls-1, .cls-3, .cls-4 {
        stroke: #54a287;
      }

      .cls-5 {
        letter-spacing: -.04em;
      }

      .cls-6 {
        letter-spacing: .02em;
      }

      .cls-7 {
        fill: #54a287;
      }

      .cls-8 {
        font-size: 48px;
      }

      .cls-8, .cls-9, .cls-10, .cls-11 {
        fill: #231f20;
      }

      .cls-8, .cls-9, .cls-10, .cls-12 {
        font-family: SourceSansPro-Regular, 'Source Sans Pro';
      }

      .cls-2 {
        stroke: #f7f3ec;
      }

      .cls-2, .cls-3 {
        fill: #f8f5ed;
      }

      .cls-13 {
        letter-spacing: 0em;
      }

      .cls-14 {
        letter-spacing: 0em;
      }

      .cls-15 {
        letter-spacing: 0em;
      }

      .cls-16 {
        fill: #f0cfdc;
      }

      .cls-17 {
        letter-spacing: 0em;
      }

      .cls-18 {
        letter-spacing: -.01em;
      }

      .cls-19 {
        letter-spacing: 0em;
      }

      .cls-20 {
        letter-spacing: -.02em;
      }

      .cls-21 {
        letter-spacing: -.01em;
      }

      .cls-22 {
        letter-spacing: 0em;
      }

      .cls-9 {
        font-size: 33px;
      }

      .cls-23 {
        letter-spacing: -.07em;
      }

      .cls-4 {
        fill: #f7f3ec;
      }

      .cls-24 {
        letter-spacing: -.01em;
      }

      .cls-25 {
        letter-spacing: -.02em;
      }

      .cls-26 {
        letter-spacing: -.01em;
      }

      .cls-27 {
        letter-spacing: -.03em;
      }

      .cls-28 {
        letter-spacing: -.02em;
      }

      .cls-29 {
        fill: #95b8a3;
      }

      .cls-30 {
        letter-spacing: -.02em;
      }

      .cls-31 {
        letter-spacing: 0em;
      }

      .cls-32 {
        letter-spacing: 0em;
      }

      .cls-33 {
        fill: #f1d0dd;
      }

      .cls-10, .cls-12 {
        font-size: 21px;
      }

      .cls-34 {
        letter-spacing: -.05em;
      }

      .cls-35 {
        letter-spacing: -.07em;
      }

      .cls-36 {
        font-family: SourceSansPro-It, 'SourceSansPro It';
        font-size: 13px;
        font-style: italic;
      }

      .cls-37 {
        letter-spacing: 0em;
      }

      .cls-38 {
        letter-spacing: -.01em;
      }

      .cls-39 {
        letter-spacing: -.02em;
      }
    </style>
  </defs>
  <path class="cls-3" d="m552.48,6.48c-1.39.09-2.22-.7-2.51-1.7-10.67.59-21.33,1.01-32.03.28-1-.07-1.7-.5-2.16-1.08h-4.83c-18.1.3-36.18.83-54.22,2.23-.94.07-1.77-.56-2.19-1.39-3.9,0-7.8,0-11.71,0-5.43-.01-10.98-.07-16.39-.84H.5v765.92c0,.24.01.49.02.73.23,7.68,1.2,15.69.09,23.33,0,0,0,.01,0,.02,0,0,0,0,0,0-.04.25-.06.5-.1.74,0,.01,0,.02,0,.04v14.21c.17,2.62.34,5.25.49,7.87.49,8.83.76,17.67.77,26.52,0,1.99-.01,3.98-.02,5.97h601.77v-201.59c-.19-3.93-.38-7.86-.67-11.79-.33-.42-.55-.99-.58-1.71-.87-27.15-2.34-54.47,1.25-81.43v-46.63c-.75-.45-1.32-1.23-1.4-2.34-.66-9.48.63-18.85,1.4-28.24v-20.96c-.31-4.68-.53-9.36-.04-14.03.01-.14.03-.28.04-.42v-22.17c-.18-2.56-.13-5.06,0-7.57V3.98h-19.95c-10.34.99-20.7,1.86-31.07,2.5Z"/>
  <rect class="cls-16" x="159.16" y="70.29" width="305" height="48.08"/>
  <rect class="cls-29" x="69" y="228.13" width="217.32" height="41"/>
  <path class="cls-29" d="m4.25,214.98c12.63-8.37,18.96-23.01,21.82-37.35,2.86-14.34,2.91-29.11,6.3-43.34,1.44-6.05,3.54-12.08,7.38-17.1,11.05-14.47,32.87-16.89,47.61-28.04,9.86-7.46,16.18-18.95,16.97-30.87.4-5.93-.51-11.88-.26-17.82.58-13.52,7.07-26.09,13.43-38.21-26.5.56-53.01,1.11-79.51,1.67-12.5.26-24.99.52-37.49.79"/>
  <rect class="cls-29" x="319.66" y="404.26" width="217.32" height="41"/>
  <text class="cls-8" transform="translate(185.66 84.93)"><tspan x="0" y="0">Drinks Menu</tspan></text>
  <text class="cls-9" transform="translate(87.66 238.48)"><tspan x="0" y="0">Co</tspan><tspan class="cls-19" x="36.73" y="0">ff</tspan><tspan x="55.47" y="0">ee &amp; </tspan><tspan class="cls-35" x="121.54" y="0">T</tspan><tspan class="cls-26" x="137.05" y="0">e</tspan><tspan x="152.95" y="0">a</tspan></text>
  <text class="cls-9" transform="translate(353.66 418.27)"><tspan x="0" y="0">Soft Drinks</tspan></text>
  <text/>
  <path class="cls-29" d="m196.72,835.21c-20.45-11.69-38.92-26.84-54.41-44.62-10.86-12.47-20.63-26.55-34.91-34.86-18.51-10.77-43.48-11.21-57.1-27.76-8.21-9.97-10.2-23.66-10.38-36.59-.36-26.24,5.32-53.16-2.04-78.35-5.88-20.1-19.62-36.96-35.58-50.61-.03,2.87-.09,5.74-.18,8.6.04,4.28-.19,8.58-.22,12.89-.07,8.91.23,17.84,0,26.74-.07,2.79-.26,5.58-.49,8.37.81,5.41,1.52,10.84,1.96,16.28.38,4.69,3.52,36.92-1.8,49.79.22,5.91.19,11.77-.07,17.62.46,7.28.89,14.56,1.17,21.85.32,4.63.66,9.25,1.1,13.87.94,10.05,1.12,20.36,1.43,30.47.23,7.68,1.2,15.69.09,23.33,0,0,0,.01,0,.02,0,0,0,0,0,0-.04.25-.06.5-.1.74-.12.74-.45,1.25-.87,1.57.48,6.85.97,13.69,1.34,20.54.49,8.83.76,17.67.77,26.52,0,3.79-.04,7.59,0,11.38,4.17-.14,8.35-.29,12.51-.25,4.74.05,9.4.72,14.08,1.25.35-1.01,1.23-1.84,2.5-1.88,35.78-.9,71.53.39,107.23,2.7,2.16-.2,4.31-.4,6.47-.6,15.35-1.42,30.66-2.05,46.07-2.15.85,0,1.7,0,2.55,0,7.4-.34,14.82-.37,22.22-.68,1.35-.06,2.73-.12,4.13-.18-8.61-6.14-18.25-10.75-27.45-16.01Z"/>
  <path class="cls-29" d="m607.49,634.21c-.33-.42-.55-.99-.58-1.71-.93-29.03-2.54-58.26,2.06-87.03.03-13.58.02-27.16-.19-40.73-1.05-.34-1.93-1.22-2.03-2.63-1.03-14.7,2.66-29.15,1.76-43.78-.4-6.48-1.08-12.97-.4-19.45.69-6.62,1.06-13.8.25-20.4-.72-5.91-.06-11.41.25-17.35.26-5.05.34-10.05.72-15.07l-1.87-79.05c-.48-3.78-.96-7.56-1.44-11.35-15.05,31.48-26.52,64.15-34.2,97.44-5.23,22.68-8.7,46.16-3.19,68.8,3.79,15.59,11.77,30.48,13.3,46.33,2.96,30.83-18.79,60.99-13.32,91.58,3.39,18.95,16.81,35.42,29.86,51.16,2.51,3.02,6.46,6.22,10.36,7.29-.56-8.01-.76-16.05-1.35-24.06Z"/>
  <path class="cls-33" d="m610.55,839.51c-.05-3.27-.12-6.54-.25-9.81-.5-12.63-.64-25.28-.42-37.93.27-15.74.45-31.55,1.54-47.27-1.39.42-2.76.88-4.09,1.44-8.63,3.64-14.85,10.26-21.19,16.42-22.67,22.01-51.65,40.81-85.49,46.56-20.35,3.45-42.01,2.15-61.15,8.92-17.79,6.3-31.26,18.82-44.12,30.98l214.28,6.59c.11-5.31.4-10.6.88-15.89Z"/>
  <path class="cls-33" d="m608.37,39.39c-.01-7.35-.17-14.56.77-21.84.26-2.05.43-4.12.55-6.18.12-3.79.19-7.58.23-11.37-17.56,1.95-35.14,3.66-52.78,4.76-1.39.09-2.22-.7-2.51-1.7-10.67.59-21.33,1.01-32.03.28-1.04-.07-1.78-.53-2.23-1.15-19.68.28-39.36.78-58.98,2.31-.94.07-1.77-.56-2.19-1.39-3.9,0-7.8,0-11.71,0-.06,0-.12,0-.18,0,24.33,18.05,39.43,51.61,69.02,60.07,11.51,3.29,24.24,2.33,34.93,7.72,11.97,6.03,18.82,18.62,27.11,29.15,8.9,11.32,20.14,20.77,32.77,27.68-1.4-14.12-1.79-28.33-2.19-42.51-.43-15.27-.56-30.54-.58-45.81Z"/>
  <path class="cls-33" d="m.5,280.13c15.79.77,30.61,11.71,36,26.57,2.69,7.42,3.16,15.46,5.53,22.99,4.88,15.48,17.76,28.94,16.76,45.14-.4,6.4-3,12.44-5.56,18.32-7.76,17.82-15.53,35.63-23.29,53.45-3.53,8.09-7.09,16.29-8.57,24.99-1.29,7.57-1,15.42-3.2,22.77s-7.88,14.49-15.53,15.07"/>
  <text class="cls-10" transform="translate(91.79 313.26)"><tspan x="0" y="0">Esp</tspan><tspan class="cls-31" x="31.52" y="0">r</tspan><tspan x="38.62" y="0">esso</tspan><tspan x="0" y="50.4">Ameri</tspan><tspan class="cls-31" x="51.74" y="50.4">c</tspan><tspan x="61.11" y="50.4">ano</tspan><tspan x="0" y="100.8">Fl</tspan><tspan class="cls-18" x="15.75" y="100.8">a</tspan><tspan x="26.04" y="100.8">t Whi</tspan><tspan class="cls-18" x="70.48" y="100.8">t</tspan><tspan x="77.3" y="100.8">e</tspan><tspan x="0" y="151.2">L</tspan><tspan class="cls-18" x="10.21" y="151.2">a</tspan><tspan class="cls-30" x="20.5" y="151.2">t</tspan><tspan class="cls-18" x="27.2" y="151.2">t</tspan><tspan x="34.02" y="151.2">e</tspan><tspan x="0" y="201.6">Cappucino</tspan><tspan x="0" y="252">Mocha </tspan><tspan class="cls-23" x="0" y="302.4">T</tspan><tspan class="cls-18" x="9.87" y="302.4">e</tspan><tspan x="19.99" y="302.4">a </tspan></text>
  <text class="cls-11" transform="translate(319.66 480.35)"><tspan class="cls-12"><tspan class="cls-21" x="0" y="0">L</tspan><tspan x="9.95" y="0">emonade</tspan></tspan><tspan class="cls-12"><tspan x="0" y="50.4">S</tspan><tspan class="cls-18" x="11.21" y="50.4">p</tspan><tspan x="22.57" y="50.4">arkling </tspan><tspan class="cls-20" x="87.69" y="50.4">W</tspan><tspan class="cls-24" x="103.86" y="50.4">at</tspan><tspan x="120.98" y="50.4">er</tspan></tspan><tspan class="cls-12"><tspan x="0" y="100.8">Co</tspan><tspan class="cls-31" x="23.37" y="100.8">c</tspan><tspan x="32.74" y="100.8">a-Cola</tspan></tspan><tspan class="cls-36"><tspan class="cls-37" x="0" y="116.4">R</tspan><tspan x="7.05" y="116.4">egula</tspan><tspan class="cls-34" x="37.32" y="116.4">r</tspan><tspan x="40.89" y="116.4">, Die</tspan><tspan class="cls-22" x="64.54" y="116.4">t</tspan><tspan x="68.81" y="116.4">, </tspan><tspan class="cls-38" x="74.25" y="116.4">Z</tspan><tspan x="81.29" y="116.4">e</tspan><tspan class="cls-14" x="87.8" y="116.4">r</tspan><tspan x="91.92" y="116.4">o</tspan></tspan><tspan class="cls-12"><tspan class="cls-28" x="0" y="166.8">F</tspan><tspan x="9.98" y="166.8">ruit Jui</tspan><tspan class="cls-25" x="71.9" y="166.8">c</tspan><tspan x="81.04" y="166.8">e </tspan></tspan><tspan class="cls-36"><tspan x="0" y="182.4">O</tspan><tspan class="cls-13" x="8.96" y="182.4">r</tspan><tspan x="13.14" y="182.4">ang</tspan><tspan class="cls-38" x="33.89" y="182.4">e</tspan><tspan x="40.25" y="182.4">, </tspan><tspan class="cls-22" x="45.69" y="182.4">A</tspan><tspan x="53.61" y="182.4">ppl</tspan><tspan class="cls-38" x="71.47" y="182.4">e</tspan><tspan x="77.83" y="182.4">, </tspan><tspan class="cls-22" x="83.28" y="182.4">C</tspan><tspan class="cls-13" x="90.78" y="182.4">r</tspan><tspan x="94.96" y="182.4">anbe</tspan><tspan class="cls-17" x="122.35" y="182.4">r</tspan><tspan class="cls-6" x="126.66" y="182.4">r</tspan><tspan x="131.23" y="182.4">y</tspan></tspan><tspan class="cls-12"><tspan x="0" y="232.8">Milksha</tspan><tspan class="cls-39" x="67.01" y="232.8">k</tspan><tspan x="77.03" y="232.8">e</tspan></tspan><tspan class="cls-36"><tspan x="0" y="248.4">Banana, cho</tspan><tspan class="cls-32" x="65.9" y="248.4">c</tspan><tspan x="71.64" y="248.4">ol</tspan><tspan class="cls-15" x="81.85" y="248.4">a</tspan><tspan class="cls-32" x="88.06" y="248.4">t</tspan><tspan x="92.29" y="248.4">e</tspan><tspan class="cls-5" x="98.8" y="248.4"> </tspan><tspan class="cls-27" x="101.09" y="248.4">V</tspan><tspan x="107.91" y="248.4">anilla</tspan></tspan></text>
  <text class="cls-10" transform="translate(215.29 314.76)"><tspan x="0" y="0">£1.50</tspan><tspan x="0" y="50.4">£2.00</tspan><tspan x="0" y="100.8">£2.20</tspan><tspan x="0" y="151.2">£2.70</tspan><tspan x="0" y="201.6">£2.70</tspan><tspan x="0" y="252">£2.70 </tspan><tspan x="0" y="302.4">£2.00</tspan></text>
  <text class="cls-10" transform="translate(490.23 480.35)"><tspan x="0" y="0">£1.50</tspan><tspan x="0" y="50.4">£1.00</tspan><tspan x="0" y="100.8">£1.50</tspan><tspan x="0" y="176.4">£1.50</tspan><tspan x="0" y="252">£2.50 </tspan></text>
  <g>
    <ellipse class="cls-1" cx="436.29" cy="249.52" rx="12.16" ry="38.83" transform="translate(93.54 617.12) rotate(-76.77)"/>
    <ellipse class="cls-4" cx="437.49" cy="244.8" rx="12.16" ry="38.83" transform="translate(99.05 614.65) rotate(-76.77)"/>
    <ellipse class="cls-4" cx="437.89" cy="243.21" rx="8.51" ry="32.27" transform="translate(100.71 613.63) rotate(-76.74)"/>
    <ellipse class="cls-4" cx="439.15" cy="238.25" rx="8.51" ry="32.27" transform="translate(106.51 611.03) rotate(-76.74)"/>
    <path class="cls-1" d="m399.48,243.03l-4.08,79.97s5.15,8.52,24.54,11.32c12.65,1.82,21-.69,21.44-.91s32.18-73.88,30.6-73.38"/>
    <line class="cls-1" x1="475.27" y1="253.76" x2="474.08" y2="258.47"/>
    <line class="cls-1" x1="399.71" y1="235.85" x2="398.51" y2="240.56"/>
    <line class="cls-1" x1="469.7" y1="247.02" x2="468.4" y2="252.13"/>
    <line class="cls-1" x1="407.75" y1="230.81" x2="406.49" y2="235.77"/>
    <ellipse class="cls-3" cx="436.45" cy="242.12" rx="1.84" ry="6.27" transform="translate(100.77 611.49) rotate(-76.76)"/>
    <path class="cls-7" d="m421.52,229.36c-.77.02-1.59.19-2.36.09-.69-.09-1.41-.01-2.11.05s-1.4.3-2.08.5c-.28.08-.54.21-.83.29-.3.08-.57.18-.78.42-.42.48-.72.94-.84,1.57-.11.59-.07,1.09.35,1.56.45.52,1.07.93,1.64,1.32.63.42,1.26.84,1.9,1.23.72.45,1.49.8,2.24,1.19.33.17.59.42.9.63s.65.34,1.01.43c.63.15.89-.81.27-.96-.7-.17-1.15-.71-1.78-1.01-.77-.37-1.52-.75-2.25-1.21-.68-.43-1.37-.86-2.03-1.32-.45-.32-1.38-.82-1.3-1.46.04-.36.13-.62.36-.89.1-.11.17-.31.28-.4s.28-.11.42-.15c.68-.2,1.35-.48,2.05-.65.42-.1.85-.09,1.27-.11.38-.02.73-.09,1.11-.03.84.12,1.71-.05,2.56-.06.64-.01.64-1.01,0-1h0Z"/>
    <path class="cls-7" d="m457.45,238.44c.73.26,1.45.52,2.05,1.03s1.17.85,1.87,1.14c.22.09.41.16.58.32.11.1.19.23.29.34.26.28.54.54.81.81.37.39.66.72.76,1.26.05.26.14.85-.13,1.03-.18.12-.57.02-.78.03-.39.02-.76.14-1.15.19-.41.05-.84,0-1.25.02-.47.02-.94.06-1.4.07-.37,0-.73,0-1.1.06-.46.08-.89.04-1.35.05-.67.01-2.5-.39-2.67.59-.11.63.85.9.96.27-.06.34-.22.08-.03.12.11.02.27-.02.38-.02.26,0,.53.02.79.04.65.04,1.34.07,1.98-.04.41-.07.81-.06,1.23-.07.53-.01,1.06-.07,1.59-.08.42,0,.82.01,1.23-.06s.81-.15,1.25-.15c1.29.01,1.63-1.13,1.44-2.24-.1-.56-.33-1.01-.7-1.43-.22-.26-.46-.5-.71-.74-.28-.28-.53-.62-.83-.88-.35-.31-.83-.42-1.24-.62-.44-.21-.8-.48-1.17-.8-.72-.6-1.56-.91-2.43-1.23-.61-.22-.87.75-.27.96h0Z"/>
    <path class="cls-7" d="m424.81,219.16c.36-1.39.9-2.77.91-4.22s-.71-2.51-1.45-3.7c-.66-1.06-1.03-2.26-.75-3.51.22-.96.78-1.78,1.41-2.51,1.29-1.48,2.9-2.75,3.65-4.63.23-.59.41-1.2.64-1.79.27-.69.54-1.38.68-2.11.27-1.49-.14-2.97-.39-4.44-.15-.86-.23-1.62-.04-2.47.18-.81.46-1.6.67-2.4s.46-1.57.88-2.29,1.05-1.19,1.52-1.85c.38-.52-.49-1.02-.86-.5-.41.57-.97.98-1.35,1.58s-.68,1.25-.9,1.92-.38,1.37-.59,2.06-.4,1.36-.48,2.07c-.17,1.59.47,3.19.62,4.77s-.52,2.82-1.02,4.2c-.37,1.05-.76,1.93-1.49,2.78-.65.76-1.38,1.45-2.06,2.2-1.38,1.53-2.3,3.32-1.87,5.43.32,1.57,1.61,2.63,2.04,4.13.48,1.67-.32,3.44-.73,5.03-.16.62.8.89.96.27h0Z"/>
    <path class="cls-7" d="m442.66,220.61c-.04-1.91-.18-3.77-.59-5.64-.38-1.72-.12-3.62.99-5.05s2.17-2.79,2.9-4.45c.67-1.52.87-3.4.51-5.03-.12-.56-.26-1.06-.14-1.63.11-.5.3-.98.44-1.47.29-1.03.71-2,1.18-2.96.28-.58-.58-1.08-.86-.5-.39.81-.77,1.62-1.06,2.47s-.65,1.77-.74,2.65.29,1.75.33,2.65c.04.99-.07,1.99-.38,2.93-.58,1.76-1.81,3.27-2.94,4.7-1.02,1.29-1.59,3.17-1.4,4.8.12,1.06.44,2.09.57,3.15.14,1.12.16,2.25.19,3.38.01.64,1.01.64,1,0h0Z"/>
    <path class="cls-7" d="m459.98,226.03c-.07-2.14-.74-4.85.71-6.68.71-.9,1.7-1.54,2.44-2.43.82-.98,1.06-2.25,1.68-3.35s.67-2.27.51-3.47c-.09-.64-.23-1.28-.42-1.9-.2-.67-.5-1.33-.55-2.04-.08-1.24.42-2.54.65-3.75s.39-2.65,1.28-3.52c.48-.47,1-.84,1.4-1.38s.86-1.13,1.21-1.74c.73-1.29.87-2.79,1.22-4.21.15-.62-.81-.89-.96-.27-.32,1.28-.43,2.7-1.07,3.88-.32.59-.74,1.13-1.14,1.66-.38.5-.85.86-1.3,1.28-.89.84-1.2,2.06-1.45,3.22-.26,1.24-.6,2.51-.78,3.76-.38,2.56,1.89,5.15.7,7.67-.25.53-.59,1-.8,1.55-.27.7-.45,1.37-.94,1.95-.75.88-1.72,1.53-2.44,2.43-1.65,2.08-1.02,4.87-.94,7.32.02.64,1.02.64,1,0h0Z"/>
    <path class="cls-1" d="m398.01,273.26s18.06,9.18,28.88,11.34c10.82,2.16,10.92,3.2,33.98,3.7"/>
    <path class="cls-1" d="m396.41,297.73s15.52,8.58,24.92,10.4c9.4,1.82,9.46,2.85,29.63,2.67"/>
  </g>
  <g>
    <path class="cls-4" d="m142.59,700.7l21.01,55.41s6.3,4.29,21.22.59c9.74-2.42,15.04-6.53,15.3-6.81s1.23-59.4.23-58.59"/>
    <ellipse class="cls-3" cx="171.44" cy="695.62" rx="29.29" ry="9.8" transform="translate(-118.19 40.34) rotate(-10)"/>
    <line class="cls-3" x1="138.88" y1="679.64" x2="134.54" y2="680.41"/>
    <ellipse class="cls-3" cx="172.05" cy="699.08" rx="25.68" ry="5.66" transform="translate(-118.78 40.5) rotate(-10)"/>
    <polygon class="cls-2" points="150.79 702.56 144.58 693.09 145.9 691.74 152.11 701.22 150.79 702.56"/>
    <line class="cls-1" x1="156.57" y1="706.56" x2="138.88" y2="679.64"/>
    <line class="cls-1" x1="152.5" y1="706.07" x2="134.54" y2="680.41"/>
  </g>
</svg>