<?xml version="1.0" encoding="UTF-8"?>
<svg id="Layer_1" data-name="Layer 1" xmlns="http://www.w3.org/2000/svg" viewBox="0 0 315.54 222.67">
  <defs>
    <style>
      .cls-1, .cls-2, .cls-3, .cls-4, .cls-5, .cls-6, .cls-7, .cls-8, .cls-9, .cls-10 {
        stroke-miterlimit: 10;
      }

      .cls-1, .cls-2, .cls-4, .cls-5, .cls-6, .cls-7, .cls-9, .cls-10 {
        stroke: #231f20;
      }

      .cls-1, .cls-3 {
        fill: none;
      }

      .cls-11, .cls-5 {
        fill: #fff;
      }

      .cls-2 {
        fill: #d5d8dd;
      }

      .cls-3 {
        stroke: #fff;
      }

      .cls-4 {
        fill: #f7d9bf;
      }

      .cls-6 {
        fill: #e97059;
      }

      .cls-7, .cls-8 {
        fill: #edd5d9;
      }

      .cls-8 {
        stroke: #1f2626;
      }

      .cls-9, .cls-12 {
        fill: #ebc6d1;
      }

      .cls-10 {
        fill: #fef1f6;
      }

      .cls-13 {
        fill: #723837;
      }
    </style>
  </defs>
  <rect class="cls-4" x=".5" y="74.68" width="314.54" height="119.5"/>
  <rect class="cls-9" x=".5" y="124.35" width="314.54" height="17.56"/>
  <rect class="cls-9" x=".95" y="75.28" width="14.52" height="118.9"/>
  <path class="cls-9" d="m315.04,74.68S62.37,19.61,63.72,20.98C39.64,35.52,18.18,53.74.5,74.68"/>
  <ellipse class="cls-5" cx="58.97" cy="194.18" rx="25" ry="24.72"/>
  <ellipse class="cls-5" cx="242.52" cy="194.18" rx="25" ry="24.72"/>
  <ellipse class="cls-2" cx="58.97" cy="194.18" rx="20.47" ry="18.71"/>
  <ellipse class="cls-2" cx="242.52" cy="194.18" rx="20.47" ry="18.71"/>
  <ellipse class="cls-8" cx="58.97" cy="194.18" rx="13.37" ry="12.32"/>
  <ellipse class="cls-7" cx="242.52" cy="194.18" rx="13.37" ry="12.32"/>
  <ellipse class="cls-6" cx="88.12" cy="31.86" rx="23.44" ry="21.43"/>
  <path class="cls-13" d="m90.52,1.72c.71-.71.17-2.26-1.05-1.52-.93.68-1.63,1.55-2.12,2.52-2.23,2.6-1.13,10.23-.64,13.83.24-2.97.44-5.95.83-8.91.22-1.73.27-4.07,2.36-4.82.25-.13.36-.37.38-.63.07-.09.21-.31.23-.46Z"/>
  <rect class="cls-2" x="87.12" y="110.29" width="130.73" height="48.28"/>
  <path class="cls-3" d="m76.15,23.35c-3.37,4.5-3.44,10.84-.17,15.39"/>
  <path class="cls-9" d="m.77,83.34c.82,3.04,3.93,5.45,7.38,5.73,3.45.28,6.98-1.6,8.38-4.46,5.83.82,9.69,7.93,15.45,6.78,4.3-.86,7.96-6.21,11.67-4.07,2.05,1.18,2.18,4.04,4.17,5.31,3,1.9,6.7-1.21,8.94-3.83,2.24-2.62,6.87-5.09,9.05-2.42.72.88.82,2.05,1.39,3.01,1.95,3.26,7.45,2.14,10.96.23,3.51-1.91,8-4.22,11.35-2.07,1.89,1.21,2.61,3.48,4.38,4.82,2.84,2.14,7.2,1.13,10.36-.61,3.16-1.74,6.03-4.16,9.68-4.75,3.75-.61,7.83,1.07,9.77,4.03,1.05,1.6,1.86,3.76,3.89,4.08,2.9.45,4.16-3.07,5.64-5.37,3.83-5.94,14.27-4.99,19.91-.38,1.25,1.02,2.43,2.21,4.01,2.73,5.04,1.66,9.48-4.12,14.83-4.5,7.06-.5,13.36,8.41,19.53,5.26,2.32-1.19,3.37-3.72,5.44-5.25,3.96-2.93,9.87-1.22,14.46.83,4.59,2.05,9.97,4.37,14.55,2.3,2-.9,3.55-2.56,5.69-3.16,4.81-1.35,9.29,3.21,14.32,3.44,6.14.28,11.21-5.89,17.27-4.96,3.41.52,5.84,3.13,8.49,5.14,2.65,2.01,6.66,3.48,9.41,1.59,1.16-.8,1.83-2.06,2.91-2.96,3.25-2.68,8.33-1.07,12.69-.59,6.74.74,13.82-1.9,18.02-6.72"/>
  <rect class="cls-12" x="1.69" y="74.68" width="310.42" height="5.24"/>
  <line class="cls-9" x1="315.04" y1="74.68" x2="287.97" y2="68.79"/>
  <path class="cls-11" d="m77.45,213.35c-.89,1.1-1.88,2.11-2.85,3.13-.42.44-.83.88-1.22,1.36-.14.17-.27.35-.41.52-.02.02-.63.68-.4.53l.63.27c2.01-2.65,4.14-5.2,6.23-7.8,1.49-1.85,3.57-3.5,4.2-5.87.05-.19-.23-.16-.31-.13-1.65.51-2.71,1.61-3.99,2.69-1.72,1.46-3.44,2.92-5.15,4.39s-3.32,2.82-4.93,4.29c-.81.74-1.62,1.48-2.4,2.25-.74.73-1.35,1.52-2.21,2.12l.48.58c2.1-2,4.43-3.75,6.7-5.55,1.88-1.49,3.88-2.83,5.28-4.82.49-.7-.21-.54-.63-.27-3.26,2.08-6.67,4.03-9.29,6.94-.83.93.08.79.73.32,5.29-3.83,9.6-8.73,14.37-13.15.21-.19.87-.8.49-1.04-.33-.21-1.41.82-1.59.98-2.19,1.98-4.1,4.17-6,6.43s-4.01,4.34-5.73,6.75c-.34.47-.1.58.36.42.61-.2,1.25-.86,1.63-1.36,1.7-2.3,4.31-4.35,6.32-6.16.86-.77,1.72-1.56,2.48-2.43.48-.55,1.34-1.43,1.26-2.23-.02-.18-.15-.18-.31-.13-2.48.76-3.79,3.31-5.33,5.2-1.94,2.36-3.9,4.7-5.37,7.4-.38.7.96-.07,1.06-.14,3.81-2.72,6.95-6.4,9.23-10.47.42-.75-1.26.29-1.37.38-1.92,1.58-3.44,3.54-5.29,5.18-1.09.96-3.14,2.3-3.22,3.92-.02.48,1.06-.27,1.11-.31,2.18-1.46,3.92-3.42,5.48-5.51s2.87-4.37,5.05-5.71l-.76-.06c-.42,1.07-1.47,1.7-2.29,2.45-.59.54-.91,1.42.18.78s2.15-1.59,2.84-2.72c.28-.46.52-.97.63-1.5.14-.65-.08-1.24-.11-1.88s-2.14,1.23-2.29,1.53c-.5.98-.95,1.95-1.19,3.03-.01.1.03.15.13.16,1.62-.17,3.15-2.54,4.07-3.7.68-.85,1.35-1.71,1.94-2.61.28-.43.95-1.21.86-1.78-.1-.64-1.82.9-1.97,1.08-.49.57-.91,1.17-1.31,1.81-.31.5-.66,1.47-1.15,1.78l.79-.22c-.6-.86.76-3.23,1.26-3.98l-2.16,1.32c-.06.32-.11.65-.19.97-.16.64-.66,1.07.17.5l1.11-.31c-.07-.96.23-2.71.98-3.39l-1.7.93c.42.71.56,1.53.29,2.32l2.16-1.69c-1.29-.43,1.21-2.9.42-3.9l-.35.74.19-.21-1.43,1.12c-.1.04.3,1,.37,1.07.3.29.56.21.91.07.73-.28,1.84-1.05,2.13-1.81.42-1.1-1.61-1.86-2.45-1.86-.41,0-2.64,1.57-2.19,1.97.82.73,1.25,2.04.96,3.11l2.32-1.81c-.19-.48-.23-1.02-.25-1.54,0-.25-.01-.52.01-.77.15-1.44.63.03-1.4.59.63-.18,1.25-.72,1.66-1.21.15-.18.69-.93.07-.76-2.46.68-3.24,3.43-2.39,5.61.2.52,2.23-1.45,2.32-1.81.3-1.11-.16-2.58-1.01-3.34l-2.19,1.97c.59,0,1.2.28,1.68.61.19.13.39.43.57.52,1.51-.46,1.97-1.03,1.39-1.7-.06-.24-.12-.49-.17-.73.01-.1-.03-.15-.13-.16-1.04-.07-1.91.8-2.55,1.52-.1.11-.51.54-.35.74.84,1.06-2.2,3.32-.21,3.99.58.2,1.98-1.18,2.16-1.69.35-1,.31-1.96-.23-2.89-.23-.39-1.61.85-1.7.93-1.34,1.22-2.35,3.32-2.23,5.16.03.47,1.02-.24,1.11-.31,1.57-1.06,2.17-2.46,2.5-4.26.07-.39-.77.08-.81.11-.5.29-1.03.73-1.35,1.22-.54.81-.95,1.71-1.29,2.62-.23.63-.73,1.71-.29,2.35.14.2.68-.15.79-.22,1.07-.67,2.01-1.51,2.77-2.52s1.22-2.1,2.01-3.01l-1.97,1.08c.06.35-.36.83-.55,1.11-.46.69-.97,1.36-1.48,2.01-.45.57-.92,1.14-1.4,1.68,0,0-.28.36-.19.21-.18.3.81-.53.73-.47.79-.51.73-.72,1.07-1.51.17-.41.38-.8.59-1.19l-2.29,1.53c.03.53.22,1.05.16,1.58-.03.25-.1.52-.2.75-.07.18-.54.75-.25.58l.18.78c1.29-1.18,2.77-2.19,3.44-3.88.23-.58-.55-.19-.76-.06-2.34,1.44-4.2,3.4-5.86,5.58s-3.02,4.54-5.27,6.05l1.11-.31c.05-.98,1.79-1.96,2.44-2.6,1.41-1.4,2.68-2.93,4.22-4.2l-1.37.38c-1.72,3.06-3.99,5.97-6.87,8.02l1.06-.14c1.04-1.9,2.36-3.61,3.73-5.28.66-.81,1.33-1.61,1.99-2.42.28-.35.57-.69.85-1.04.16-.19.32-.39.48-.59.25-.34.14-.31-.32.07l-.31-.13c.07.72-.93,1.46-1.39,1.9-.57.55-1.18,1.06-1.75,1.6-2.23,2.13-4.69,4.07-6.54,6.56l1.98-.94c1.6-2.24,3.58-4.16,5.34-6.27s3.49-4.08,5.5-5.91l-1.1-.06c-4.37,4.05-8.3,8.61-13.15,12.12l.73.32c1.9-2.12,4.59-3.48,6.97-4.99l-.63-.27c-.63.91-1.52,1.52-2.39,2.18-.96.73-1.89,1.48-2.84,2.23-2.01,1.58-4.01,3.19-5.87,4.95-.13.12-.81.75-.6,1s.94-.32,1.09-.42c1.51-1.05,2.63-2.38,3.94-3.63,1.44-1.37,2.91-2.7,4.42-3.98s2.92-2.49,4.38-3.73c.74-.63,1.47-1.25,2.21-1.88.64-.54,1.33-1.39,2.13-1.63l-.31-.13c-.33,1.22-1.26,2.15-2.08,3.06s-1.64,1.93-2.45,2.93c-1.85,2.3-3.75,4.57-5.53,6.92-.53.7.23.52.63.27,1.39-.88,2.31-2.04,3.36-3.28,1.23-1.46,2.65-2.73,3.85-4.21.24-.3.63-.73.07-.76-.5-.02-1.38.87-1.66,1.21h0Z"/>
  <path class="cls-11" d="m86.27,200.14c-.14-.51-.28-1.02-.52-1.49-.27-.53-.74-1.08-1.4-1.03-.25.02-.46.18-.49.43-.03.23.11.5.36.55.64.12,1.95.42,2.2-.45.18-.62-.39-1.11-.93-1.23-.16-.04-.32-.05-.49-.07-.05,0-.1-.01-.16-.02-.02,0-.22-.03-.1,0-.37-.06-.72-.21-1.1-.2l.25.93c.23-.13.52-.09.77-.06.35.05.7.13,1.06.12l-.13-.98c-.39.08-.78-.02-1.17-.08-.18-.03-.35-.04-.53-.05-.07,0-.13-.01-.13-.01-.11-.02-.04-.02,0,.05l-.56.73c.36.12.73.08,1.1.1.33.02.68.06,1-.05.38-.13.52-.7.12-.91-.34-.18-.68-.17-1.05-.25-.39-.08-.76-.17-1.16-.17-.64.01-.65,1.01,0,1,.48,0,.95-.03,1.42.03s.86-.11,1.12-.51c.19-.29-.02-.63-.3-.73-.24-.09-.5-.05-.74.02-.09.03-.18.06-.28.08-.03,0-.09,0-.14-.02-.23-.07-.46-.2-.72-.23s-.5-.02-.76,0c-.64.02-.65,1,0,1,.35,0,.71-.15,1.02-.27.08,0,.09,0,.01-.01.01,0,.03,0,.04.01.04.01.08.02.12.03.11.03.22.06.33.09.27.05.57.09.82-.06.34-.21.41-.72.12-1.01-.23-.24-.58-.21-.86-.12-.12.04-.24.09-.36.15-.05.02-.1.04-.15.06-.09.04.1-.01-.02,0,.01,0,.06,0,.1,0-.06,0-.12-.02-.17-.04-.12-.03-.24-.07-.37-.09-.38-.06-.77.04-.89.45-.09.32.16.63.48.63.26,0,.51-.07.77-.1.28-.03.58,0,.86,0,.64,0,.64-1,0-1-.28,0-.58-.02-.86,0-.26.02-.51.11-.77.1l.48.63c-.06.16-.16.25-.29.25-.05,0-.05,0,0,0,.05,0,.05,0,.02,0-.04,0-.03,0,.02,0,.09.02.17.04.26.06.2.05.41.1.61.05.08-.02.16-.06.24-.1.03-.01.06-.02.08-.04.01,0,.13-.06.07-.03-.06.03.05-.02.06-.02.04-.01.08-.03.12-.04.04-.01.08-.02.12-.03-.07,0-.08,0-.05,0,.04,0,.02,0-.06-.01-.23-.11-.39-.37-.16-.6l.15-.09s-.04.01,0,0c.05,0,.04,0,0,0-.02,0-.04,0-.06,0-.06,0,.08.02-.01,0-.16-.04-.31-.08-.47-.12-.22-.06-.45-.05-.68.01s-.46.22-.69.21v1c.22,0,.46-.04.69,0,.2.03.37.15.56.21.23.07.48.06.71,0,.09-.02.19-.06.28-.08.09-.02.08-.03.15,0l-.3-.73c-.04.06-.07.05-.01.02s-.05,0-.08,0c-.14,0-.27-.03-.4-.04-.39-.03-.79,0-1.19,0v1c.32,0,.58.06.89.13.25.06.59.04.81.15l.12-.91c-.21.07-.49.03-.74.01-.28-.01-.56.03-.84-.06-.4-.14-.81.38-.56.73.3.44.76.42,1.24.47.27.03.53.09.8.12.31.04.61.02.91-.05.55-.12.43-1-.13-.98-.8.02-1.57-.34-2.33.08-.43.24-.24.94.25.93.25,0,.49.1.74.15.22.05.45.06.67.08.08,0,.01,0,.06,0,.05,0,.11.02.16.03.04.01.09.02.13.04-.08-.03.04.03.06.03-.07-.03.02.05-.02-.02.05.07.01-.05.01.02,0,.09,0-.09,0-.03,0,.04.06-.16.04-.13,0,0,.07-.08.11-.1-.04.03-.09.02.02,0-.04,0-.18.04-.12.03.08-.01-.04,0-.06,0-.03,0-.06,0-.09,0-.08,0-.16,0-.24,0-.07,0-.14-.01-.22-.02-.05,0,.1.02-.02,0-.03,0-.06,0-.09-.01-.1-.02-.2-.04-.3-.06l-.13.98s.18-.04.06,0c.02,0,.05.01.07.02-.06-.03-.07-.03-.01,0,.02.01.15.11.06.03.03.03.06.06.09.09.01.02.12.15.06.07.04.05.07.1.1.15.06.1.11.21.16.32.01.03.01.03,0,0,.01.03.02.06.04.09.02.06.05.12.07.18.04.11.07.22.11.33.05.18.1.35.15.53.17.62,1.14.36.96-.27h0Z"/>
  <path class="cls-11" d="m90.41,214.65c4.7-1.73,9.29-3.74,13.8-5.91s8.62-4.66,12.54-7.63c.58-.44,1.17-.88,1.76-1.3.31-.21.62-.42.94-.61.13-.07.28-.13.4-.21.27-.18.22.1,0-.24v-.5l-.1.14c-.38.52.49,1.02.86.5l.1-.14c.1-.14.09-.37,0-.5-.66-1.02-2.42.49-3.03.93-1.74,1.26-3.44,2.56-5.23,3.75-4.33,2.88-8.98,5.14-13.73,7.25-2.83,1.26-5.69,2.44-8.6,3.51-.6.22-.34,1.19.27.96h0Z"/>
  <path class="cls-11" d="m33.03,196.92c-.13-.04-.26-.07-.38-.11-.07-.02-.13-.04-.19-.06.04.01.04.02,0,0-.04-.02-.07-.04-.1-.06v.86s.07-.04.1-.06c.05-.03.03-.01,0,0,.07-.02.14-.04.22-.06.06-.02-.08,0,.01,0,.04,0,.07,0,.11,0,.08,0,.16,0,.24,0,.33,0,.65.01.97-.06.3-.07.48-.48.3-.73s-.44-.37-.76-.35c-.26.02-.51.22-.5.5s.22.49.5.5c.37.01.74.06,1.11-.04s.49-.57.22-.84c-.18-.18-.41-.25-.65-.26-.08,0-.16,0-.24.01-.03,0-.07,0-.1,0-.04,0-.03,0,.04,0-.02,0-.05-.01-.07-.02l.22.84s.03-.03-.03.02c-.07.02-.09.03-.05.02.11-.03-.05-.01,0,0,.08,0,.16,0,.24,0,.19.01.37.02.55-.03.44-.11.47-.68.12-.91-.3-.2-.68-.23-1.04-.2-.16.01-.32.03-.47.04-.08,0-.15,0-.23,0-.03,0-.15-.02-.02,0-.04,0-.07-.01-.11-.02l.12.91c-.11.05.01,0,.03,0,.04-.01.08-.02.12-.03.03,0,.07-.02.11-.02.04,0,.09-.02.02,0,.18-.02.36-.03.54-.04.37-.01.74-.02,1.11-.08.24-.04.39-.33.36-.55-.03-.24-.24-.44-.49-.43-.7.01-1.42-.15-2.1.06-.19.06-.33.22-.36.42-.02.18.06.42.24.5.29.13.57.18.88.14.15-.02.29-.04.43-.07.02,0,.21-.03.12-.02.07,0,.13-.01.2-.01v-1c-.43.01-.85-.01-1.28,0l.13.98c.06-.02.12-.03.18-.04-.09.02.03,0,.06,0,.1,0,.21,0,.31-.01.23,0,.47-.02.69-.11.2-.08.38-.25.37-.48,0-.21-.15-.44-.37-.48-.24-.05-.47-.06-.72-.03-.22.02-.43.05-.65.05v1c.5,0,1,0,1.49,0v-1c-.29,0-.57,0-.86,0-.26,0-.51.23-.5.5s.22.49.5.5c.45.01.92.08,1.33-.17.37-.23.29-.79-.12-.91-.36-.11-.77-.1-1.14-.05-.12.01-.23.03-.35.06-.07.01-.14.02-.21.03.09-.01-.06,0-.07,0-.24.03-.49.04-.73.04l.25.93s.06-.03.08-.04c-.04.02-.04.02-.01,0,.05-.01.11-.04.16-.05.09-.03.19-.05.29-.06.02,0,.15-.02.06-.01.06,0,.11-.01.17-.02.1,0,.21-.01.31-.01.21,0,.42,0,.63-.02.1,0,.2,0,.31,0,.05,0,.1,0,.15,0,.06,0,.06,0,0,0,.03,0,.06.01.09.02l-.35-.35.02.1c.06.26.37.43.62.35.27-.09.41-.34.35-.62l-.02-.1c-.04-.16-.19-.31-.35-.35-.48-.12-1.01-.05-1.5-.04-.53.01-1.05.09-1.52.32-.45.22-.23.94.25.93.23,0,.45-.01.68-.04.15-.01.29-.03.44-.06.1-.01.22-.02.31-.05.04,0,.02,0-.05,0,.02,0,.05,0,.07,0,.04,0,.08,0,.12,0,.09,0,.18,0,.27,0s.18,0,.27.01c.12,0-.09-.02.01,0,.04,0,.08.02.12.03l-.12-.91s-.1.04-.02.02c-.04.01-.08.02-.12.03.1-.03,0,0-.04,0-.04,0-.09,0-.13,0-.17,0-.34-.02-.51-.02v1c.29,0,.57,0,.86,0,.26,0,.51-.23.5-.5s-.22-.5-.5-.5c-.5,0-1,0-1.49,0-.26,0-.51.23-.5.5s.22.49.5.5c.2,0,.39-.02.59-.04.09,0,.18-.02.27-.02.05,0,.11,0,.16,0,.1,0-.03-.01.08.01v-.96c-.05.02-.11.03-.16.05-.1.03.07,0-.05,0-.1,0-.21.01-.31.02-.24,0-.49.02-.72.09s-.39.3-.36.55c.03.23.24.45.49.43.43-.02.85,0,1.28,0,.26,0,.51-.23.5-.5s-.22-.51-.5-.5c-.25,0-.49.06-.73.1,0,0-.16.02-.07.01-.05,0-.1,0-.15.01s-.1,0-.15,0c.13.02-.13-.06-.03-.01l-.12.91c.07-.02.15-.04.22-.05.06-.01-.08,0,.02,0,.05,0,.09,0,.13,0,.16,0,.33,0,.49,0,.32.01.64.05.97.04l-.13-.98c-.12.02.08,0-.03,0-.04,0-.09,0-.13.01-.09,0-.18.01-.27.01-.18,0-.36,0-.55.02-.41.02-.8.07-1.18.23-.18.08-.26.32-.24.5.03.19.17.36.36.42.32.09.64.05.97.02.15-.01.3-.03.44-.02.02,0,.13.01.05,0s.03,0,.05.01c.04,0,.12.06.02,0,.03.02.07.04.1.06l.12-.91c-.08.02.12,0-.03,0-.05,0-.1,0-.15,0-.09,0-.18-.01-.27-.01-.26,0-.53.07-.72.27-.26.28-.15.72.22.84.15.05.32.05.48.04.05,0,.13.01.18,0,.04-.01-.07-.03,0,0-.03-.01-.14-.11-.07-.04l.22-.84s-.08.02-.11.03c-.07.02.06,0-.01,0-.08,0-.17,0-.25,0-.16,0-.31-.02-.47-.02v1s.13,0,.13,0h-.06c-.07-.03-.12-.08-.17-.14l.3-.73s-.08.02-.11.02c.07-.01.05,0,0,0-.08,0-.15,0-.23,0-.16,0-.32,0-.48,0-.36,0-.74.06-1.05.27s-.33.65,0,.86c.28.17.61.24.92.34.25.08.56-.09.62-.35.06-.27-.08-.53-.35-.62h0Z"/>
  <path class="cls-11" d="m34.64,198.23c-.29-.2-.82-.36-1.04-.62l-.1.79c.22-.1.58-.29.83-.24l-.12-.91c-.18.08-.39.12-.58.19-.5.19-.47.99.13.98.42,0,.76-.13,1.15-.27l-.62-.62c-.03.13-.38.26-.49.37-.18.18-.31.41-.31.67,0,.3.17.59.38.79s.65.25.82.48l.3-.73c-.42.15-.86.12-1.3.16-.5.05-.99.15-1.5.17l.13.98c.69-.15,1.39-.28,2.05-.55.25-.1.5-.23.7-.42.13-.12.3-.51.44-.57l-.68-.18.05.1-.05-.39c-.04.24-.33.52-.43.76-.12.29-.23.59-.26.9-.07.74.33,1.37.74,1.95.45.64.44,1.41.71,2.13.16.42.35.81.51,1.23s.44.89.49,1.31c.08.62,1.01.66,1,0-.01-.51-.32-.73-.69-1.02-.52-.41-.83-.99-1.16-1.54-.3-.5-.63-.98-.99-1.44-.23-.29-.48-.56-.68-.87-.13-.2-.41-.54-.42-.78l-.5.5c-.12-.01.15.25.22.34.09.13.18.26.29.39.34.41.73.77,1.08,1.16.4.44.76.92,1.1,1.41.27.39.44.85.76,1.19.29.31.87.08.85-.35-.04-.93-.65-1.81-.98-2.66-.38-.97-.92-1.93-1.09-2.96l-.91.39c.25.41.59.69.76,1.14s.25.92.41,1.36c.32.87.83,1.64,1.3,2.43s.7,1.61,1.3,2.27c.33.36.7.67.99,1.07.12.17.22.35.34.52.05.07.28.27.28.35l.63-.48c-.86-.3-1.55-.9-2.27-1.43-.35-.26-.71-.48-1.02-.78-.25-.24-.43-.4-.79-.42-.39-.02-.6.44-.43.75.22.41.69.6,1.07.83.62.4,1.26.77,1.9,1.13.3.17.6.33.89.51.18.11.37.23.54.36.07.06.14.14.22.19.17.1-.01.17.06-.02l.35-.35c-.68.11-1.35-.3-1.95-.58-.55-.25-1.1-.31-1.67-.5l-.27.96c1.05.3,2.07.68,3.05,1.16.86.42,1.75.83,2.39,1.57l.35-.85c-.98-.02-1.97-.7-2.85-1.09-.62-.27-1.7-.8-2.27-.15-.18.21-.2.5,0,.71.54.56,1.28.86,2,1.13.88.33,1.75.66,2.64.96,1.03.35,2.01.75,2.96,1.28.45.25.9.5,1.32.8.33.23.59.54.96.72l.39-.91c-1.56-.49-3.12-1.01-4.63-1.64-.81-.34-2.5-1.34-3.29-.54-.22.22-.18.63.1.79.9.5,1.88.8,2.84,1.16,1.04.38,2.09.76,3.13,1.14s2.1.81,3.17,1.16,2.2.54,3.17,1.1l.39-.91c-1.56-.48-3.19-.79-4.79-1.11-.77-.15-1.54-.27-2.31-.38-.73-.1-1.45-.24-2.18-.14-.53.07-.42.83,0,.96,2.29.74,4.76,1.18,7.14,1.54,1.17.18,2.35.28,3.53.39.66.06,1.31.11,1.97.18.53.06,1.05.19,1.59.17l-.13-.98c-.61.19-1.42.02-2.05,0-.98-.05-1.95-.11-2.93-.2s-1.94-.17-2.91-.2c-.76-.02-1.56-.1-2.29.15-.48.17-.46.79,0,.96.66.26,1.37.13,2.06.16.78.03,1.56.12,2.33.17,1.64.09,3.28.14,4.91.23s3.22.16,4.83.27,3.33.15,4.97.36l-.35-.85c.08-.07-.27.01-.34.02-.16.02-.32.02-.49.03-.36.02-.73.02-1.09.02-1.45,0-2.89-.13-4.33-.2s-2.77-.09-4.16-.13-2.91-.04-4.3-.38v.96c.72-.16,1.46-.09,2.19-.05.79.05,1.58.08,2.37.11,1.76.06,3.52.11,5.28.14s3.43.06,5.14.1,3.55.22,5.32.2c.64,0,.64-.99,0-1-4.45-.07-8.91.14-13.36,0l.35.85c.27-.28.68-.34,1.05-.42.41-.1.81-.22,1.22-.34,1.01-.28,2.03-.54,3.05-.74,2.03-.39,4.08-.73,6.16-.74l-.13-.98c-1.72.32-3.46.55-5.19.83-1.6.26-3.19.66-4.83.53l.13.98c1.63-.49,3.3-.8,4.99-1.01,1.53-.19,3.13-.09,4.62-.52.52-.15.45-1.04-.13-.98-1.97.21-3.88.89-5.87.91l.25.93c2.03-1.11,4.51-.89,6.7-1.39.41-.09.5-.72.12-.91-.6-.3-1.38-.09-2,.02-.41.07-.81.16-1.22.23-.17.03-.33.06-.5.07-.3.02-.2-.09-.05.15l-.18.68c.41-.25.83-.44,1.3-.55.14-.03.27-.06.41-.09s.49-.01.36-.13v-.71c-.74.65-1.6,1.13-2.41,1.69s-1.67,1.03-2.66,1.13l.43.75c.17-.24,1.1-.21,1.38-.24.67-.08,1.36-.39,2.03-.27v-.96c-1.08.35-2.18.66-3.27,1-.61.19-.35,1.15.27.96,1.09-.33,2.18-.65,3.27-1,.43-.14.52-.87,0-.96-.9-.16-1.75.18-2.64.27-.66.07-1.48.11-1.9.7-.21.29.07.79.43.75,1.09-.12,2.09-.53,3-1.15s1.92-1.22,2.78-1.97c.2-.17.19-.53,0-.71-.39-.37-.92-.22-1.39-.11-.68.15-1.29.37-1.89.73-.23.14-.32.45-.18.68.35.59,1.33.3,1.87.21.45-.08.9-.18,1.35-.25.23-.04.74-.15.91-.07l.12-.91c-2.3.52-4.81.33-6.94,1.49-.44.24-.24.94.25.93,2-.02,3.9-.7,5.87-.91l-.13-.98c-1.54.44-3.23.34-4.82.55s-3.23.51-4.79.99c-.56.17-.42.94.13.98,1.64.13,3.26-.26,4.87-.53,1.8-.3,3.62-.53,5.41-.87.56-.1.42-.99-.13-.98-2.24.01-4.47.39-6.66.83-1.11.22-2.2.51-3.28.82-.75.21-1.68.29-2.24.89-.3.32-.08.84.35.85,4.45.15,8.91-.06,13.36,0v-1c-1.77.02-3.55-.15-5.32-.2s-3.59-.07-5.39-.11-3.61-.09-5.41-.15c-1.45-.05-3.03-.34-4.46-.01-.48.11-.47.85,0,.96,1.45.35,2.96.36,4.44.41,1.59.06,3.18.08,4.77.16s3.06.21,4.59.16c.6-.02,1.38.04,1.87-.35.38-.31.02-.81-.35-.85-1.56-.2-3.15-.24-4.72-.34s-3.22-.19-4.83-.27-3.11-.13-4.67-.21c-.79-.04-1.58-.12-2.37-.17-.72-.05-1.58.11-2.25-.15v.96c.77-.27,1.71-.13,2.51-.1.97.04,1.94.14,2.91.22s1.95.14,2.93.18c.6.03,1.24.13,1.83-.05.52-.16.45-1-.13-.98-.53.02-1.06-.12-1.59-.17-.57-.06-1.15-.11-1.72-.16-1.25-.12-2.51-.22-3.75-.41-2.3-.36-4.68-.78-6.9-1.5v.96c.71-.1,1.54.12,2.24.23s1.45.24,2.17.39c1.45.3,2.93.57,4.34,1.01.55.17.87-.63.39-.91-.91-.53-1.96-.74-2.96-1.06-1.07-.34-2.11-.76-3.17-1.15s-2.13-.75-3.19-1.15-2.04-.68-2.99-1.2l.1.79c.15-.16,1.24.36,1.38.41.6.23,1.18.5,1.77.73,1.25.48,2.52.9,3.79,1.3.53.17.9-.66.39-.91-.35-.17-.63-.5-.96-.72-.42-.29-.87-.55-1.32-.8-.82-.46-1.67-.84-2.55-1.15s-1.76-.61-2.64-.94c-.76-.29-1.63-.51-2.21-1.11v.71c.18-.21,1.48.5,1.78.63.84.37,1.69.87,2.63.9.46.01.63-.54.35-.85-.7-.8-1.65-1.26-2.59-1.72-1.06-.52-2.15-.94-3.29-1.26-.62-.18-.87.76-.27.96s1.14.27,1.71.54c.51.24,1.03.48,1.6.56.41.06,1.01.1,1.19-.37.11-.31-.02-.61-.22-.84-.43-.52-1.1-.85-1.68-1.17-.51-.28-1.02-.57-1.51-.87-.29-.17-.56-.36-.85-.54-.16-.1-.43-.18-.52-.35l-.43.75c.06,0,.57.53.66.6.35.25.7.49,1.04.75.67.51,1.33.96,2.12,1.24.31.11.64-.17.63-.48,0-.41-.24-.63-.47-.94-.29-.4-.54-.81-.88-1.17-.33-.34-.68-.63-.91-1.04s-.4-.87-.63-1.29c-.49-.88-1.11-1.7-1.42-2.66-.15-.45-.24-.91-.42-1.35-.19-.48-.54-.76-.79-1.19-.31-.51-1.01-.16-.91.39.17.96.66,1.84,1.01,2.74.16.4.31.8.48,1.2.2.45.53.92.55,1.41l.85-.35c-.18-.19-.26-.47-.4-.69-.19-.31-.41-.6-.63-.89-.37-.5-.77-.96-1.19-1.41-.35-.37-.68-.73-.98-1.14-.26-.35-.51-.61-.95-.65-.26-.03-.52.25-.5.5.07,1.15,1.31,2.16,1.91,3.08.33.5.6,1.04.95,1.52.18.25.38.49.61.69.09.08.46.27.46.36h1c-.09-.78-.5-1.59-.82-2.31-.2-.44-.37-.88-.47-1.36-.07-.35-.12-.7-.27-1.02-.36-.79-1.14-1.32-.79-2.28.2-.55.76-.92.44-1.55-.13-.26-.45-.28-.68-.18-.19.08-.31.2-.42.37-.18.29-.26.42-.6.57-.61.26-1.29.37-1.93.5-.55.12-.43,1,.13.98s1.11-.14,1.67-.19c.47-.04.94-.02,1.39-.18.27-.1.5-.45.3-.73-.15-.2-.3-.35-.53-.47-.1-.06-.22-.09-.32-.15-.07-.02-.13-.06-.18-.12-.06-.08-.07-.07-.04.01.05-.1.33-.21.42-.29.16-.15.27-.3.33-.52.09-.35-.25-.75-.62-.62-.3.11-.57.23-.89.23l.13.98c.27-.1.55-.17.81-.29.38-.17.29-.85-.12-.91-.58-.1-1.08.12-1.6.34-.32.14-.29.57-.1.79.31.36.86.5,1.25.77.53.37,1.03-.49.5-.86h0Z"/>
  <path class="cls-11" d="m269.07,198.54c-.19-.22-.29-.48-.5-.68s-.27-.44-.44-.68c-.31-.44-.71-.86-1.17-1.12l.23.3s.88.11,1,.13c.37.06.73.03,1.01-.25.21-.22.19-.64-.1-.79-.12-.06-.36-.12-.43-.15-.17-.07-.23-.18-.43-.2-.22-.01-.37.1-.56.17-.32.12-.58.04-.9-.03l-.13.98c.38.02.79-.03,1.17.06.14.03.32.15.46.15.14.06.16.05.05-.02-.11-.11-.12-.06-.04.17-.1.71-.29,1.39-.43,2.1s-.22,1.47-.25,2.21.1,1.57-.3,2.22h.86c-.11-.22-.06-.86-.06-1.2,0-.61.03-1.22.03-1.82,0-.53-.12-2.39-1.12-1.53-.71.61-.92,1.96-1.07,2.82-.09.56-.44,2.21.46,2.36.25.04.56-.06.62-.35.19-.92.32-1.85.39-2.79.04-.45.05-.9.11-1.35.05-.41.14-.7-.11-1.06s-.77-.3-.91.12.09.79.45,1c.19.11.45.08.61-.08.49-.49.72-1.32.93-1.97l-.91.12c-.19-.32.01-.33-.12-.08-.05.1-.08.21-.12.32-.09.23-.2.46-.29.69-.24.61-.33,1.3-.34,1.95s.98.64,1,0c.03-.93.23-2.63-.87-3.06-.21-.08-.45.06-.56.23-.59.9-.51,2.35-.6,3.38-.12,1.31-.27,2.62-.42,3.93-.06.58.82.65.98.13.15-.47.01-.98,0-1.46-.02-.55.07-1.07.17-1.6.19-1.05.36-2.08.14-3.15-.07-.34-.61-.51-.84-.22-.43.55-.53,1.18-.66,1.86-.16.78-.25,1.56-.33,2.35-.17,1.68-.38,3.34-.39,5.03,0,.25.23.53.5.5,1.03-.1.87-2.05.89-2.77.02-.56.05-1.12.07-1.68s.09-1.15.07-1.7c-.01-.39-.23-.66-.55-.86-.3-.18-.62,0-.73.3-.56,1.39-.87,2.85-1.2,4.31s-.71,2.97-.84,4.51c-.04.48.72.7.93.25.42-.9.7-1.84.92-2.8.25-1.08.5-2.18.43-3.3-.02-.33-.3-.56-.63-.48-.55.12-.72.49-.83,1-.17.78-.53,1.56-.77,2.32-.49,1.55-.98,3.08-1.05,4.72-.02.45.55.64.85.35.5-.48.46-1.01.64-1.63.23-.79.54-1.56.82-2.34.13-.37.26-.74.39-1.11.14-.43.35-.81.51-1.23.19-.51,0-.95-.47-1.21-.18-.1-.46-.09-.61.08-.78.95-1.17,2.03-1.49,3.21-.36,1.32-.79,2.62-.89,3.99-.04.61.79.61.98.13.25-.61.32-1.28.49-1.92.12-.46.27-1.04-.05-1.46-.17-.23-.56-.38-.79-.1-.7.85-1.21,1.79-1.67,2.79s-.95,1.93-1.11,2.99c-.08.55.58.88.91.39.3-.46.43-.95.63-1.45.26-.65.51-1.31.8-1.94.41-.91.96-1.82.7-2.85-.08-.3-.46-.47-.73-.3-.77.5-1.02,1.61-1.32,2.43-.4,1.12-.73,2.25-.94,3.42-.08.45.33.75.73.56.64-.28.6-1.04.79-1.62.3-.89.61-1.78.94-2.67.17-.45.33-.9.49-1.36.12-.35.33-.75.35-1.12.03-.53-.51-1.11-1.06-.92-.61.2-1.22.87-1.62,1.35-.46.55-.82,1.17-1.12,1.82-.31.68-.56,1.39-.77,2.12-.12.43-.22.87-.34,1.3-.1.36-.17.82-.42,1.11l.79.61c.25-.41.7-.62.94-1.07.22-.42.37-.88.52-1.33.19-.53.36-1.07.57-1.59s.53-1.05.66-1.63c.1-.49-.46-.83-.84-.49-.44.4-.74.98-1.05,1.48-.36.58-.68,1.18-1,1.78-.6,1.13-1.2,2.29-1.27,3.59-.02.4.44.59.75.43.49-.25.82-.61,1.03-1.11.3-.72.7-1.38,1.11-2.04.65-1.04,1.62-2.03,1.65-3.31,0-.38-.43-.62-.75-.43-.53.31-.85.86-1.19,1.36-.45.66-.84,1.36-1.19,2.08-.64,1.33-1.02,2.78-1.84,4.02h.86c-.23-.44.23-1.35.34-1.8.19-.77.35-1.54.35-2.34,0-.29-.23-.47-.5-.5-.41-.05-.55-.04-.87.23s-.6.52-.86.84c-.53.65-.93,1.38-1.35,2.1s-1.64,2.82-.6,3.49c.29.19.63-.01.73-.3.36-.99.64-2.01,1.01-3.01.18-.5.36-1.02.64-1.48.21-.35.42-.58.4-1.01s-.52-.64-.85-.35c-.61.51-1.43,1.79-1,2.6.61,1.15,2.45,0,2.62-.93.09-.48-.46-.85-.84-.49-1.02.98-1.55,2.35-1.89,3.7-.1.39.36.84.73.56.66-.48,1.01-1.42,1.05-2.22,0-.17-.1-.35-.25-.43-.55-.3-1.36-.27-1.7.35-.27.5.05,1.04.53,1.22.93.37,2.09-.15,3-.36.63-.14.36-1.11-.27-.96-.43.1-.86.24-1.3.33-.26.05-.53.11-.79.1-.05,0-.22-.04-.25-.02-.3.16.22.19.27.21l-.25-.43c-.01.26-.07.49-.19.72-.08.15-.25.54-.37.63l.73.56c.3-1.19.73-2.4,1.63-3.26l-.84-.49c-.05.26-.43.51-.65.61-.13.06-.08.14-.12.06-.02-.05.08-.29.1-.32.15-.38.41-.78.72-1.05l-.85-.35c.02.29-.48.91-.6,1.18-.18.41-.34.83-.48,1.25-.33.93-.6,1.87-.93,2.79l.73-.3c.2.13.14-.07.18-.25.05-.24.11-.47.2-.7.2-.53.5-1.02.78-1.52.56-.97,1.13-1.79,1.99-2.51l-.35.15.36.05-.5-.5c0,.94-.23,1.88-.5,2.78-.19.63-.37,1.25-.05,1.86.19.35.67.3.86,0,.74-1.11,1.11-2.4,1.65-3.61.28-.62.6-1.23.95-1.81.32-.54.71-1.35,1.26-1.68l-.75-.43c-.02,1.03-.99,1.97-1.51,2.81-.33.53-.66,1.06-.95,1.61-.26.49-.31.91-.84,1.18l.75.43c.07-1.18.69-2.24,1.23-3.26.27-.51.55-1.02.85-1.51.28-.45.56-1.02.95-1.38l-.84-.49c-.11.5-.37.93-.57,1.4-.22.52-.39,1.06-.58,1.59-.17.49-.31,1.05-.59,1.48-.23.35-.62.54-.85.9-.29.47.41,1.04.79.61.43-.5.57-1.14.73-1.77.21-.78.4-1.57.69-2.33.51-1.36,1.3-2.66,2.59-3.41l-.39.05s-1.02,2.77-1.1,2.98c-.18.52-.36,1.03-.54,1.55-.09.26-.19.52-.26.78-.04.15-.05.52-.19.58l.73.56c.17-.95.41-1.89.72-2.8.14-.41.28-.82.45-1.23.14-.34.31-1.02.63-1.23l-.73-.3c.21.84-.48,1.79-.79,2.53-.21.5-.41,1.01-.62,1.51s-.32.99-.61,1.43l.91.39c.15-.98.61-1.86,1.01-2.75s.87-1.81,1.51-2.59l-.79-.1c.18.24-.09.77-.15,1.04-.12.53-.19,1.05-.4,1.56l.98.13c.09-1.21.48-2.36.8-3.52.29-1.06.58-2.11,1.29-2.97l-.61.08s-1.03,2.79-1.13,3.06c-.18.49-.35.98-.51,1.47-.08.25-.18.51-.22.77-.04.28,0,.42-.23.63l.85.35c.06-1.31.41-2.55.81-3.79.19-.59.36-1.17.56-1.76.1-.29.2-.58.31-.87.05-.14.13-.63.24-.65l-.63-.48c.06,1.03-.16,2.03-.4,3.04-.2.87-.44,1.75-.82,2.56l.93.25c.13-1.52.53-2.99.86-4.47.31-1.38.63-2.76,1.15-4.08l-.73.3c.11.07,0,1,0,1.12,0,.42-.03.84-.06,1.26-.02.28-.02.55-.03.83,0,.41-.03.83-.06,1.24-.02.18-.03.36-.06.53,0,.05-.07.21-.06.26.03.18-.47-.03.29-.1l.5.5c.01-1.45.15-2.88.31-4.32.08-.7.13-1.4.25-2.1.1-.61.14-1.61.53-2.11l-.84-.22c.21,1.03-.04,2.04-.22,3.05-.07.4-.13.81-.13,1.22,0,.43.17.99.04,1.41l.98.13c.13-1.15.26-2.31.37-3.46.05-.54.09-1.08.15-1.62s.06-1.26.37-1.72l-.56.23c-.11-.05.02.15.05.23.04.14.07.3.09.44.06.47.01.95,0,1.43h1c.02-.72.18-1.37.45-2.03.15-.36.51-.96.28-1.35s-.79-.29-.91.12c-.14.45-.33,1.18-.67,1.52l.61-.08v.13c-.3.04-.6.08-.91.12.12.17-.04.7-.06.89-.03.38-.05.75-.08,1.13-.07.81-.18,1.61-.34,2.4l.62-.35c.37.06.11.3.15.04.03-.14,0-.32,0-.47.02-.41.09-.81.18-1.2.1-.46.29-1.6.68-1.84l-.39.05c-.58-.18-.16-.31-.21-.09,0,.03.01.11.02.14.02.19.02.38.02.57,0,.47-.01.95-.02,1.42-.02.7-.13,1.58.18,2.23.17.35.68.3.86,0,.51-.82.4-1.8.44-2.72.04-1.04.21-2.02.47-3.03.16-.61.44-1.66-.07-2.17-.2-.2-.59-.27-.84-.34-.5-.14-1.01-.09-1.52-.12-.56-.02-.69.86-.13.98.32.07.65.16.98.14s.56-.21.87-.26l-.39-.05c.2.13.4.17.61.28l-.1-.79c-.06.06-.6-.13-.7-.14-.25-.04-.47-.04-.72.02-.52.13-.96.47-.88,1.05.04.28.17.36.37.52.24.2.5.46.7.71s.27.57.51.81.39.5.6.75c.42.49,1.12-.22.71-.71h0Z"/>
  <path class="cls-11" d="m216.93,197.46c.28-.07.58-.06.88-.06.36,0,.68-.06.97-.3s.12-.74-.22-.84c-.48-.13-.97-.01-1.45,0-.18,0-.36,0-.54-.01.12.01,0,0-.03,0-.05-.01-.1-.03-.15-.04.17.05-.03,0,0-.01.06.05.06.05.02.02.04.06.05.07.02.02l-.18.68c.05-.03.05-.03,0-.01.03-.01.06-.02.1-.02-.08.02.1,0,.12,0,.13,0,.25-.01.38-.03.33-.03.66-.06.99-.05.44.01,1,.14,1.39-.13.37-.26.29-.76-.12-.91-.25-.1-.53-.07-.79-.05-.3.02-.61.02-.91.02-.28,0-.56,0-.84-.04.08,0-.07-.01-.08-.01-.07-.01-.14-.03-.21-.04s-.13-.04-.2-.06c-.06-.02-.06-.02-.02,0-.03-.01-.06-.03-.08-.04-.24-.13-.54-.06-.68.18s-.05.55.18.68c.55.32,1.22.1,1.81.08.33-.01.66.01.99-.05.15-.03.2-.05.33-.05.18,0,.37,0,.55,0l-.13-.98c-.49.16-1.06.09-1.61.07-.3,0-.59.03-.89.03-.14,0-.28-.02-.42-.02-.07,0-.15,0-.22,0-.04,0-.07,0-.11,0,.05,0,.04,0-.01-.01l.22.84c-.05.05-.19.08-.05.05.03,0,.06-.01.08-.01-.06,0-.06,0,0,0,.12,0,.24-.03.36-.05.08-.02.16-.04.23-.05.02,0,.2-.04.14-.03.04,0,.07,0,.11,0,.06,0,.07,0,.03,0,.07.02.07.02.03,0,.04.02.07.03.11.05.29.11.6.09.9.07s.57,0,.82.04.49-.05.59-.29,0-.47-.2-.62c-.48-.36-1.06-.19-1.58-.05-.15.04-.3.08-.45.12-.09.02-.17.04-.26.05.07-.01.07-.03,0,0-.02,0-.03,0-.05,0,.07,0,.13.02.19.05v.86s.06-.04.09-.05c.04-.03-.06.01.03-.01.08-.03.16-.05.24-.07.16-.04.31-.06.47-.09.07-.01.13-.02.2-.04.04,0,.06,0,0,0,.04,0,.08,0,.12-.01.08,0,.17,0,.25,0,.05,0,.1.02.02,0,.04,0,.07.02.11.03l-.12-.91s-.04.02.02,0c-.02,0-.05.02-.07.02-.03,0-.05.01-.08.02.06,0,.06,0,0,0-.11,0-.22,0-.33,0-.22,0-.44-.03-.66-.03-.27,0-.5.23-.5.5s.23.5.5.5c.11,0,.22-.02.33-.05.04,0,.07-.02.11-.03.01,0,.11-.02.07-.01.27-.01.5-.22.5-.5s-.23-.5-.5-.5c-.2,0-.38.03-.56.11-.09.04-.16.09-.23.15-.02.02-.04.04-.07.07.05-.03.04-.03-.01,0-.25.11-.3.47-.18.68.15.25.44.29.68.18.07-.03.13-.07.18-.12,0,0,.09-.11.04-.05l.04-.02s-.03.02.03,0c-.08,0,.06,0,.08,0v-1c-.11,0-.22.02-.33.05-.04,0-.07.02-.11.03-.09.02.09,0-.06,0v1c.54,0,1.12.14,1.62-.14.17-.1.27-.31.24-.5-.03-.21-.16-.34-.36-.42-.37-.14-.83-.05-1.2.02s-.79.12-1.11.34c-.29.2-.35.68,0,.86s.82.02,1.18-.07c.17-.04.33-.09.49-.14.14-.04.18-.04.28-.05h.05s-.04,0,.02,0c.06.02.07.02.03.01.03.02.07.04.1.07l.39-.91c-.35-.07-.71-.1-1.06-.08-.15,0-.31.03-.46.02-.03,0-.12,0-.04,0-.01,0-.07-.01-.03,0-.1-.03-.19-.09-.29-.11-.21-.04-.41-.02-.62.02-.08.01-.15.03-.22.05-.04,0-.08.02-.12.03,0,0-.18.05-.08.02.08-.02,0,0-.02,0-.03,0-.05,0-.08,0-.09.01-.19.02-.28.04-.16.03-.32.1-.44.22-.26.28-.15.73.22.84.16.05.33.05.5.05.16,0,.31.01.46.02.32,0,.63-.04.95-.03.62.01,1.27.09,1.88-.11.23-.08.4-.3.36-.55-.04-.24-.24-.44-.49-.43-.33.01-.65-.01-.98.05-.22.04-.48.03-.75.04-.32,0-.63.03-.95.07-.08.01-.09.01-.04,0-.03,0-.05,0-.08,0-.06,0-.12.01-.19.01,0,0-.16-.01-.08,0-.03,0-.07-.01-.1-.03.04.02.04.01-.02-.02l-.5.86c.53.28,1.15.33,1.73.34.32,0,.65,0,.98,0,.13,0,.26-.02.39-.03.07,0,.13,0,.2,0-.1,0,.05.02.07.03l-.12-.91c-.1.07.06,0-.03.02-.02,0-.05.01-.07.02.07,0,.07,0,0,0-.11,0-.21,0-.32,0-.23-.01-.46-.03-.69-.03-.33,0-.65.05-.98.07s-.63.01-.91.19c-.23.14-.32.45-.18.68.27.47.87.54,1.36.53.2,0,.41-.01.61-.03.14-.01.28-.03.42-.04.07,0,.15,0,.22,0,.06,0,.07,0,.02,0,.03,0,.06.01.1.02l-.22-.84c.06-.05.02-.01-.03,0-.03,0-.03,0,0,0-.03,0-.05,0-.08,0-.13,0-.27,0-.4,0-.3,0-.6.03-.89.1-.26.06-.42.36-.35.62.07.27.35.41.62.35h0Z"/>
  <path class="cls-11" d="m218.35,198.09c-.44-.05-.88-.06-1.31-.16l.12.91c.51-.28,1.07-.44,1.62-.62l-.39-.91c-.2.15-.52.14-.75.2-.4.1-.79.3-1.13.53-.44.3-.18,1.12.39.91.53-.2,1.19-.3,1.62-.69.34-.32.05-.82-.35-.85-.75-.07-1.71.89-1.53,1.65.23.98,1.58.78,2.21.38.51-.32.15-.99-.39-.91-.57.08-1.01.45-1.5.73-.39.22-.86.44-.96.91-.06.25.07.55.35.62s.5.09.78.05c.08,0,.45-.14.51-.12l-.22-.84c-.37.31-.78.57-1.14.9-.2.18-.18.52,0,.71.53.54,1.8.1,2.23-.41.31-.36.02-.98-.49-.84-.71.2-2.49.64-2.32,1.64.05.29.37.38.62.35,1.01-.15,2.35-.95,2.82-1.87.15-.29.02-.63-.3-.73-.47-.15-.93.07-1.27.39-.29.26-.13.74.22.84.51.14.97-.39,1.42-.26l-.35-.62c-.24.75-.91,1.46-1.33,2.11-.3.46-.66,1.2-.06,1.61,1.1.76,2.05-1.36,2.29-2.06.09-.27-.11-.53-.35-.62-1.13-.39-1.93,1.56-1.77,2.4.1.53.5.97,1.08.73.66-.27,1.01-1.21,1.21-1.84.13-.4-.38-.82-.73-.56-.51.37-.54,1.05-.43,1.64.07.38.24.7.41,1.04s.3.71.5,1.02c.14.22.45.33.68.18.65-.42.56-1.44.16-2.02-.15-.22-.44-.33-.68-.18-.72.45-.55,1.54-.56,2.28-.01.81.01,1.58.65,2.15.15.14.42.21.61.08.52-.38.45-.95.33-1.53-.08-.42-.22-.83-.25-1.26-.02-.35.11-.69.07-1.04-.05-.42-.51-.67-.85-.35-.46.43-.33,1.05-.1,1.56.1.24.23.46.38.67.21.29.38.67.64.92.3.3.86.08.85-.35-.02-1.19-.63-2.3-.48-3.49.03-.28-.26-.49-.5-.5-1.18-.05-.75,1.86-.62,2.5.19.97.24,1.92.35,2.9.08.69.15,1.5.57,2.07.32.44,1.06.2.91-.39-.12-.46.03-.98.07-1.45.01-.15.02-.31.05-.46.01-.08.07-.22.06-.3-.05-.24.45.05-.28.06l-.5-.5c-.05.73-.07,1.46.24,2.14.34.75.97,1.3,1.6,1.81.44.36,1.04-.08.79-.61-.3-.62-.11-1.62-.71-2.09-.5-.39-1.21.31-.71.71.79.62.83,1.59,1.18,2.48l.73-.56c-.46-.33-.78-1.23-.98-1.73-.17-.41-.67-1.39-.4-1.8l-.91-.39c-.18.47,0,.95.18,1.4.26.64.52,1.29.83,1.91.69,1.37,1.48,2.75,2.35,4.01.24.35.55.8,1.04.62.45-.16.5-.7.37-1.09-.19-.56-.66-1.07-.99-1.55-.23-.32-.47-.65-.68-.99s-.33-.73-.48-1.11c-.11-.28-.44-.5-.73-.3-.88.58.38,2.18.84,2.7.67.75,1.46,1.39,2.15,2.13s1.4,1.33,2.21,1.9c.4.28,1.39.93,1.59.04.16-.69-.61-1.27-1.09-1.61-.75-.53-1.31-1.22-2.03-1.79-.36-.29-.74-.58-1.02-.94-.19-.24-.29-.5-.44-.76-.1-.18-.26-.34-.35-.53l.05.39.05-.12-.62.35c.35.09.68.53.93.76.31.29.63.56.95.83.67.57,1.27,1.22,1.89,1.85s1.28,1.1,1.94,1.64c.33.27.62.55.88.89.23.3.49.46.75.72l.22-.84c-.45.11-.93-.09-1.38-.17-.33-.06-.85-.04-1.04-.36l-.08.61c-.2.06-.22.09-.06.08.08.01.17.03.25.05.17.04.34.09.51.14.39.1.78.17,1.17.23,1.1.16,2.2.22,3.3.41s2.13.26,3.23.21,2.29.07,3.44.21,2.28.37,3.42.54c1.06.16,2.1.08,3.15-.05,1.11-.13,2.22-.27,3.33-.38.97-.09,2.04-.02,2.97-.33.61-.2.35-1.15-.27-.96-1.35.41-2.77.6-4.16.81-1.56.24-3.13.45-4.7.62-1.49.16-2.97.34-4.45.52-.72.09-1.44.18-2.17.24-.43.04-1.47.23-1.85-.08l-.1.79c.64-.43,1.52-.49,2.26-.65.95-.22,1.9-.43,2.85-.62s1.87-.35,2.81-.49c1-.14,2.18-.42,3.19-.27l-.12-.91c-1.12.59-2.4.7-3.64.87s-2.53.39-3.8.43-2.47-.09-3.7-.08c-.7,0-1.5-.02-2.06.47-.22.19-.19.66.1.79.61.26,1.25-.08,1.87-.17,1.17-.17,2.35-.24,3.53-.37,1.09-.12,2.19-.24,3.28-.39.99-.14,2.02-.23,2.91-.71.48-.26.2-.87-.25-.93-1.15-.15-2.37.22-3.51.34-1.3.14-2.61.26-3.92.33s-2.56.12-3.83.05c-.67-.03-1.35-.09-2.01-.22-.6-.11-1.16-.33-1.77-.41v1c1.25.04,2.48.26,3.73.26s2.47-.1,3.69-.28c2.58-.38,5.12-1.03,7.66-1.61,1.24-.28,2.49-.54,3.73-.81.61-.13,1.22-.27,1.82-.43.24-.06.48-.14.73-.21.11-.04.22-.06.33-.07.05-.26,0-.31-.16-.17-.2,0-.69.34-.89.42-.28.11-.56.21-.84.31-.62.22-1.23.43-1.85.64-.48.16-1.51.28-1.62.9-.06.3.13.65.48.63,2.88-.15,5.46-1.82,8.37-1.88l-.35-.85c-.47.49-1.48.66-2.12.85-.77.23-1.54.44-2.31.66s-1.48.43-2.23.63c-.49.13-1.07.17-1.49.48s-.19,1.1.39.91c2.17-.71,4.31-1.67,6.64-1.58l-.48-.63c.09-.11.08-.12-.03-.04-.07.04-.13.07-.2.09-.11.05-.23.09-.34.12-.15.05-.3.09-.44.13-1.01.29-2.04.5-3.07.7-2.11.41-4.24.74-6.39.79-1.11.02-2.22-.03-3.32-.18-.95-.13-1.9-.29-2.86-.31-1.99-.04-4.27.64-5.92-.84l-.1.79c.54-.25,1.32-.09,1.89-.02s1.08.14,1.63.19c1.09.1,2.24.06,3.31.28v-.96c-.16.05-.42-.08-.57-.12-.46-.13-.92-.26-1.37-.41-.84-.28-1.68-.59-2.51-.92-1.35-.54-2.79-1.12-4.19-.43-.19.1-.29.36-.23.56.12.4.45.51.81.64.61.23,1.2.49,1.82.69s1.32.36,1.97.55,1.23.57,1.87.76l.13-.98c-1.39-.19-2.45-.94-3.66-1.56-.57-.29-1.08.57-.5.86.69.36,1.33.81,2.05,1.12.67.29,1.4.47,2.12.57.58.08.65-.82.13-.98s-1.01-.49-1.54-.66-1.03-.3-1.55-.44-.99-.29-1.47-.47c-.27-.1-.54-.21-.81-.32-.06-.03-.46-.27-.4-.06l-.23.56c1.34-.67,3.1.42,4.35.89.82.3,1.64.61,2.49.85.47.14,1.07.4,1.56.25.45-.13.5-.86,0-.96-1.24-.25-2.55-.22-3.81-.34s-2.63-.54-3.79-.01c-.29.13-.32.59-.1.79,1.79,1.6,3.97,1.17,6.17,1.13,1.16-.02,2.29.18,3.43.32,1.23.16,2.46.2,3.7.15,2.4-.1,4.78-.51,7.13-.99.82-.17,1.65-.36,2.46-.61.46-.14,1.27-.35,1.38-.91.07-.33-.14-.62-.48-.63-2.43-.1-4.65.88-6.91,1.61l.39.91c.42-.31,1.19-.36,1.69-.5.82-.23,1.63-.46,2.44-.69s1.62-.45,2.41-.72c.61-.21,1.33-.39,1.79-.87.29-.3.09-.86-.35-.85-1.44.03-2.82.42-4.19.82s-2.73.99-4.18,1.06l.48.63c-.04.19-.1.13.18.04.09-.03.17-.05.26-.07.52-.16,1.02-.34,1.53-.52.96-.33,1.97-.63,2.85-1.15.57-.34.88-.98.24-1.46-.6-.45-1.47-.02-2.09.14-2.11.55-4.27.94-6.4,1.42s-4.29,1.02-6.46,1.36c-1.21.19-2.43.29-3.66.28s-2.48-.22-3.73-.26c-.66-.02-.62.92,0,1s1.23.34,1.86.44c.6.09,1.2.15,1.8.19,1.32.07,2.64.03,3.95-.05s2.54-.18,3.8-.31c1.17-.13,2.46-.5,3.63-.36l-.25-.93c-.8.43-1.78.49-2.67.61-1.04.14-2.08.25-3.13.37s-2.05.19-3.07.31c-.34.04-.68.07-1.02.16-.13.03-.25.07-.38.1-.11.03-.46.02-.3.09l.1.79c.26-.23.81-.17,1.13-.17.47,0,.95,0,1.42.02,1.25.05,2.48.11,3.72-.03s2.38-.3,3.57-.46c1.11-.16,2.16-.34,3.16-.87.35-.19.31-.85-.12-.91-1.03-.15-2.09.05-3.11.19s-2.13.32-3.18.53-2.13.45-3.19.7c-.8.18-1.69.26-2.38.73-.24.16-.37.57-.1.79.95.78,2.66.37,3.76.24,1.65-.19,3.29-.41,4.93-.59s3.23-.38,4.84-.62,3.22-.44,4.76-.91l-.27-.96c-.98.32-2.15.23-3.18.34-1.14.12-2.28.28-3.42.4s-2.28.05-3.46-.18-2.26-.34-3.4-.47-2.33-.08-3.53-.07c-1.13,0-2.23-.26-3.35-.4-1.06-.12-2.13-.18-3.16-.46-.49-.13-1.25-.44-1.67,0-.15.16-.19.41-.08.61.33.56.9.7,1.5.8.68.12,1.36.36,2.05.19.37-.09.48-.58.22-.84-.3-.29-.57-.5-.83-.83s-.56-.59-.88-.85c-.75-.6-1.48-1.19-2.16-1.88s-1.3-1.28-2-1.88c-.57-.49-1.16-1.32-1.91-1.51-.29-.07-.51.09-.62.35s-.05.45.09.68c.19.3.36.63.55.93.36.57.88.99,1.4,1.4.55.43.97.99,1.51,1.43.41.32,1.19.63,1.27,1.2l.05-.39-.04.08.3-.23c.18-.05-.16-.17-.26-.24-.17-.12-.34-.24-.51-.37-.38-.27-.73-.55-1.06-.88-.59-.58-1.14-1.2-1.75-1.77-.47-.44-.97-.87-1.33-1.41-.13-.19-.24-.4-.34-.6-.04-.08-.07-.2-.12-.26-.21-.25.26-.18-.25.16l-.73-.3c.31.75.59,1.38,1.06,2.04.23.33.46.65.69.98.08.11.5.59.44.72l.3-.23-.08.03.39.05c-.24-.11-.39-.51-.53-.73-.19-.3-.37-.6-.55-.9-.35-.6-.7-1.21-1.04-1.82s-.63-1.18-.89-1.79c-.16-.37-.62-1.14-.46-1.55.22-.55-.62-.84-.91-.39-.5.77,0,1.81.3,2.57s.73,1.81,1.44,2.32c.34.25.89-.17.73-.56-.41-1.06-.49-2.18-1.44-2.92l-.71.71c.19.15.2.55.24.77.07.4.14.75.32,1.12l.79-.61c-.5-.4-1.05-.84-1.36-1.42s-.23-1.21-.19-1.82c.02-.27-.24-.5-.5-.5-.63,0-.72.75-.78,1.23-.09.7-.26,1.5-.09,2.19l.91-.39c-.29-.4-.34-.93-.41-1.4-.1-.69-.09-1.4-.18-2.09-.08-.65-.27-1.29-.35-1.94.01.1-.01-.18-.01-.23,0-.07.02-.22,0-.29-.08-.26.29,0-.2-.01l-.5-.5c-.15,1.21.46,2.3.48,3.49l.85-.35c-.13-.13-1.15-1.53-.92-1.74l-.85-.35c.06.45-.09.91-.03,1.38.04.29.11.57.17.86.03.13.11.79.2.73l.61.08c-.41-.37-.37-.85-.36-1.36,0-.19-.08-1.42.07-1.5l-.68-.18c.05.07.27.61.2.65l.68.18c-.22-.34-.38-.77-.56-1.13-.12-.24-.23-.46-.25-.73-.02-.14-.02-.28.01-.43.04-.16.03-.18-.04-.05l-.73-.56c-.08.25-.17.48-.3.7-.11.2-.35.35-.15.48l.23.3c-.12-.35-.15-.55,0-.91.05-.13.11-.26.19-.37.06-.08.3-.23.22-.26l-.35-.62c-.14.42-.34.94-.67,1.26,0,0-.23.21-.24.18.21.24.34.22.39-.06.06-.08.12-.16.18-.25.48-.7,1.11-1.44,1.37-2.26.08-.26-.1-.54-.35-.62-.28-.08-.51-.07-.78.02-.13.04-.5.28-.64.24l.22.84c.08-.09.18-.13.3-.13l-.3-.73c-.37.71-1.47,1.3-2.23,1.41l.62.35c.02.13-.11.25,0,.27.03,0,.2-.12.24-.14.17-.09.36-.17.54-.24.28-.11.56-.21.85-.3l-.49-.84c-.1.11-.26.18-.4.23-.13.05-.51.09-.42.18v.71c.36-.33.77-.59,1.14-.9.31-.26.1-.72-.22-.84-.41-.14-.85.17-1.29.07l.35.62c.04-.16.59-.36.72-.44.34-.21.64-.45,1.05-.5l-.39-.91c-.13.08-.69.29-.72.23-.02-.03.4-.41.55-.4l-.35-.85c-.25.24-.86.32-1.18.43l.39.91c.34-.23.69-.38,1.09-.47.26-.06.58-.1.79-.27.41-.31.2-1.1-.39-.91-.64.2-1.27.4-1.86.72-.37.2-.3.82.12.91.52.12,1.05.14,1.57.2.64.08.63-.92,0-1h0Z"/>
  <line class="cls-9" x1=".96" y1="75.05" x2="315.5" y2="74.46"/>
  <path class="cls-12" d="m45.81,80.72c-1.81.06-3.61.31-5.42.4s-3.56-.12-5.34-.33-3.6-.33-5.39-.56-3.69-.49-5.55-.56c-.55-.02-.69.88-.13.98,1.61.3,3.24.44,4.87.55,1.39.09,2.79.34,4.17.04.39-.09.52-.74.12-.91-1.19-.51-2.47-.49-3.74-.41-1.55.1-3.1.2-4.66.26s-3.07.04-4.57.28c-.8.13-1.58.33-2.39.42s-1.66.01-2.48.04c-.64.02-.65,1,0,1,1.13,0,2.27-.25,3.38-.45.54-.1,1.08-.23,1.62-.35.39-.08.77-.17,1.05-.48.17-.18.17-.4.08-.61-.29-.63-1-.74-1.61-.82-1.09-.15-2.12-.12-3.21.07-1.79.31-3.75.45-5.29,1.51-.27.19-.33.53-.1.79.74.83,2.39.35,3.3.13.75-.18,1.46-.45,2.17-.76.57-.25,1.45-.45,1.8-1,.17-.27,0-.65-.3-.73-1.12-.3-2.22.44-3.24.8-.95.34-2.17.7-2.58,1.72-.09.21.06.45.23.56.66.44,1.47.05,2.08-.29s1.45-1.15,2.18-1.12l-.25-.93c-1.13.72-2.31,1.36-3.49,1.98-.49.26-.15,1.11.39.91.69-.25,1.36-.81,2.1-.88l-.35-.85c-.57.61-1.21,1.15-1.81,1.74l.79.61c.17-.3.36-.65.69-.79.21-.09.46-.09.68-.16.37-.12.84-.7,1.22-.6l-.3-.73c-.16.32-.53.6-.79.83-.17.15-.46.29-.61.45-.02.02-.12.04-.12.06l.3.44c.05-.07.1-.14.16-.2.08-.06.12-.16.21-.2.13-.06.38-.03.52-.05.3-.05.58-.16.76-.42.08-.12.07-.27.13-.39.09-.2.24-.31.41-.43.37-.26.79-.42,1.23-.54.89-.23,1.81-.25,2.72-.37s1.86-.29,2.78-.43c.99-.16,1.99-.27,2.99-.31.47-.02.95-.02,1.43.02s.89.2,1.35.16c.55-.05.69-.8.13-.98-1.01-.33-2.02.45-2.96.72-1.41.39-2.8.81-4.2,1.23s-2.83.76-4.31.84c-1.11.06-2.26-.36-3.17.43-.23.2-.18.65.1.79,1.05.51,2.34.02,3.44-.06.63-.05,1.26-.07,1.9-.16.36-.05.72-.09,1.08-.02.33.07.61.15.95.14l-.13-.98c-.69.24-1.42.13-2.14.23-.79.11-1.52.2-2.32.2-.29,0-.48.23-.5.5-.05.61.56.78,1.05.77.7-.01,1.43-.1,2.13-.14,1.09-.06,2.17-.19,3.26-.18,1,0,1.8.58,2.81.37.26-.05.42-.37.35-.62-.35-1.19-2.71-.85-3.59-.8-.66.04-1.32.1-1.98.18-.42.05-.84.13-1.26.16-.68.05-1.47-.14-2.13-.31l.12.91c.38-.23.92-.18,1.36-.24s.9-.12,1.35-.18c.99-.13,1.98-.29,2.98-.36,1.89-.15,3.76.02,5.64.25s3.77.42,5.67.41,3.98-.26,5.9.14c.17.03.37,0,.49-.13,1.17-1.34-1.41-1.82-2.27-1.88-1.7-.13-3.42.23-5.12.34-2.01.13-4.02.18-6.04.3-.98.06-1.97.12-2.94.26-.76.11-1.68.09-2.28.61-.27.24-.14.77.22.84,3.12.56,6.37-.14,9.47-.47,3.32-.35,6.6-.13,9.89.33.62.09.89-.76.27-.96-.57-.19-1.13-.12-1.72-.15-.74-.04-1.47-.25-2.2-.36-.55-.08-1.11-.13-1.66-.18-1.35-.12-2.76-.25-4.1-.02-.45.08-.99.23-1.21.67-.1.2-.11.43-.04.64.17.51.76.47,1.21.54,2.81.37,5.65.18,8.47,0,3.32-.21,6.67-.51,10-.49v-1c-.9,0-1.76,0-2.64-.19s-1.8-.39-2.7-.59c-1.78-.39-3.59-.67-5.38-1.03-1.27-.25-2.55-.56-3.85-.64-.83-.06-2.09-.05-2.49.85-.12.27-.05.5.18.68,1.06.81,2.67.76,3.94.73,1.91-.03,3.81-.08,5.71-.17,2.23-.11,4.45-.22,6.68-.26.78-.02,1.57,0,2.35-.03.57-.02,1.26-.04,1.74-.39.36-.26.29-.99-.25-.93-2.89.29-5.8-.07-8.7-.16-2.12-.07-4.28.02-6.39-.19-2.68-.26-5.39-.68-8.09-.51-.84.05-2.44.14-2.49,1.28-.01.23.16.41.37.48,1.91.63,3.97.42,5.94.31,2.37-.13,4.69-.13,7.04.14s4.7.38,7.07.45c1.19.03,2.4.05,3.58.2.93.12,2,.59,2.93.39.44-.09.47-.7.12-.91-.56-.34-1.19-.38-1.83-.36s-1.27,0-1.92-.01c-1.2-.03-2.55-.02-3.51.8-.18.15-.17.41-.08.61.41.87,1.75.87,2.56.92,1.66.1,3.29.03,4.94-.09,1.8-.14,3.6-.28,5.4-.24,1.59.03,3.39.61,4.91-.05.23-.1.33-.49.18-.68-.43-.59-1.24-.43-1.88-.4-1.28.06-2.59.06-3.87-.02-1.36-.08-2.71-.3-4.07-.44-1.46-.15-2.92-.29-4.37-.56l-.13.98c1.86,0,3.7.23,5.56.22s3.64-.15,5.46-.3,3.65-.3,5.48-.39c1.53-.08,3.1.1,4.59-.35.36-.11.49-.56.22-.84-.91-.91-2.54-.85-3.73-.97-2.18-.21-4.38-.16-6.57-.1s-4.4.22-6.6.28c-.92.03-1.8-.02-2.71-.12-.75-.08-1.5-.1-2.2.24-.27.13-.34.59-.1.79.85.67,2.16.57,3.19.52,1.62-.07,3.24-.22,4.87-.21,1.96,0,3.8.55,5.73.77.62.07,1.22.1,1.84.02.24-.03.48-.07.72-.08.12,0,.26,0,.38-.01.3-.06.19.19.06-.18l.23-.56c-.49.27-1.26.03-1.76-.09-.62-.15-1.22-.32-1.85-.38-.98-.1-1.97-.04-2.95.08-.88.11-1.82.14-2.66.43-.49.17-.46.79,0,.96,1.58.61,3.36.53,5.02.5,2.07-.04,4.14-.18,6.21-.23s4.12-.03,6.17.12c.68.05,1.36.11,2.05.14.62.03,1.37,0,1.93.31l.25-.93c-2.42-.03-4.84.22-7.26.22-.98,0-1.93-.15-2.9-.23-.69-.06-1.36.08-1.63.79-.08.22.06.45.23.56.44.3.92.27,1.43.26.64-.01.65-1,0-1s-1.3,0-1.94.08-1.28.3-1.94.34-.65,1.02,0,1,1.29,0,1.94-.02c.25,0,.5-.02.75.02s.5.16.76.16c.31,0,.81-.29,1.05-.15.14.08.22.26.39.35.12.06.25.08.38.1.42.06.85-.03,1.27-.11.51-.09,1.04-.12,1.56-.17,1.24-.13,2.48-.27,3.72-.41,2.48-.28,4.96-.56,7.45-.72,1.23-.08,2.46-.13,3.7-.21.9-.06,2.28-.44,2.92.35l.22-.84c-.69.1-1.42.09-2.12.16-.75.08-1.48.02-2.23-.07-1.55-.2-3.08-.34-4.65-.33-1.39,0-2.81.05-4.19.22-.35.04-.69.11-1.04.16-.23.03-.93.16-1.08.01l-.35.85c4.08.44,8.18.26,12.27.23,2.01-.02,4.02.04,6.03-.02s4.12-.36,6.18-.61c.62-.07.66-1.01,0-1-5.28.1-10.54-.61-15.82-.73-2.6-.06-5.21-.07-7.81-.22-1.5-.09-3.39-.73-4.78.08-.14.08-.26.26-.25.43.08,1.03,1.26,1.35,2.11,1.52,1.3.25,2.65.31,3.97.25,1.96-.08,3.9-.4,5.85-.55s3.98-.18,5.97-.22c.9-.02,1.91.08,2.76-.26.34-.14.77-.43.76-.84-.01-.63-.88-1.04-1.36-1.24-1.38-.58-2.93-.58-4.41-.6-1.92-.03-3.85-.03-5.77-.11-1.82-.07-3.78-.19-5.5.47-.83.32-1.82.05-2.68.03-1.13-.03-2.3.09-3.43.23-.5.06-.74.87-.13.98,2.26.4,4.48-.09,6.7-.51,1.11-.21,2.22-.38,3.35-.39,1.23,0,2.46.15,3.68.34,2.26.34,4.49.68,6.78.43.58-.06,1.18-.27,1.76-.29.27,0,.53.07.8.1.56.06,1.29-.04,1.38-.72.04-.29-.07-.5-.35-.62-.83-.34-1.85-.11-2.7,0-1.39.17-2.79.27-4.18.39-1.51.13-3.03.26-4.55.25-.75,0-1.5-.04-2.24-.15-.62-.09-1.22-.16-1.84-.04-.46.09-.45.69-.12.91.65.44,1.48.52,2.24.61,1.14.14,2.27.28,3.41.4,2.43.26,4.93.35,7.32.87l.13-.98c-1.02,0-2.04.02-3.07-.02s-2.13-.21-3.2-.2c-.64,0-.64.98,0,1,1.27.04,2.52.14,3.8.07s2.62-.17,3.93-.3c2.47-.25,4.93-.62,7.36-1.17l-.27-.96c-2.02.79-4.15.73-6.26.32-.55-.11-.87.59-.39.91.79.52,1.84.73,2.76.91,1,.2,2.02.3,3.03.35,1.94.09,3.95-.03,5.79-.68.49-.18.47-1.04-.13-.98-1.29.13-2.59.24-3.88.29-.8.03-1.61.06-2.41,0-.3-.02-.61-.04-.9-.11-.06-.01-.19-.07-.22-.07-.02,0-.09,0-.04-.02.06-.02.04.31.05.25l-.35.35c1.58-.54,3.25-.69,4.91-.81.65-.05.64-.94,0-1-2.14-.22-4.31-.2-6.42.23-.97.19-3.02.65-2.64,2.05.04.17.18.31.35.35,3.22.81,6.19-.97,9.38-.95l-.48-.37c.06.18.09-.22.13-.17,0,0-.27.05-.29.05-.33.03-.68,0-1.01-.05-.72-.08-1.43-.23-2.13-.39-.8-.18-1.59-.36-2.41-.46-.65-.08-1.3-.09-1.96-.13-.45-.03-.97-.07-1.36.2-.2.14-.35.46-.18.68.43.57,1.09.6,1.76.61,1.01.02,2.02.14,3.03.21,2.43.16,4.86.15,7.29.11s4.95-.11,7.42-.03,4.8.36,7.21.44c.97.03,1.89-.03,2.85-.12.76-.07,1.82-.23,2.37.42l.35-.85c-.29-.02-.66-.22-.95-.29-.2-.05-.41-.08-.61-.11-.54-.07-1.08-.1-1.62-.12-1.15-.05-2.3-.04-3.45,0-2.22.09-4.44.21-6.66.29s-4.49.17-6.73.22c-2,.04-4,0-5.83.93-.23.12-.33.47-.18.68.67.94,2.06.55,3.03.49,2-.12,4-.24,6-.34s3.87-.1,5.8-.12c.97,0,1.94,0,2.91-.08.83-.08,1.7-.07,2.45-.47.35-.19.31-.84-.12-.91-1.57-.25-3.16.04-4.74.06-1.72.02-3.44-.04-5.16-.02-1.59.02-3.19.08-4.76.34-.73.12-2.18.13-2.41,1.02-.09.34.16.6.48.63,2.51.29,5.03-.01,7.53-.2s4.95-.45,7.43-.59c2.22-.13,4.55-.16,6.75.23.87.15,2.75.65,3.04-.61.05-.22-.03-.45-.23-.56-.59-.35-1.26-.3-1.93-.27-.95.04-1.91.02-2.86,0-2.02-.03-4-.22-6.01-.49s-3.95-.51-5.94-.55c-.96-.02-1.92-.02-2.88.05-.49.04-1.34.35-1.78.09l-.12.91c.75-.27,1.61-.16,2.38-.09.9.08,1.81.2,2.72.23,1.87.07,3.74.05,5.62.02s3.78-.12,5.67-.19c1.56-.06,3.21.1,4.69-.49.41-.16.54-.86,0-.96-1.82-.35-3.67-.41-5.51-.5-1.98-.1-3.96-.18-5.95-.17s-3.92.13-5.87.22c-1.02.05-2.04.08-3.06.09-.8,0-1.64-.12-2.43.06-.51.11-.44.82,0,.96,1.6.54,3.5.16,5.16.17,2.08,0,4.16.08,6.23.25,4.19.35,8.37.77,12.58.79v-1c-1.13.03-2.27-.2-3.4-.2s-2.25.09-3.37.25c-1.02.15-2.02.38-3.03.57-.64.12-1.36.18-1.93.53-.35.21-.32.83.12.91,1.19.24,2.4.18,3.61.17s2.5-.04,3.74-.13,2.54-.21,3.82-.31c.57-.05,1.14-.09,1.71-.17.53-.07,1.07-.24,1.59-.09l.13-.98c-1.23-.02-2.38.04-3.59.21-.83.12-1.74.18-2.38.78-.35.33-.05.81.35.85,1.6.18,3.17-.23,4.73-.52,1.73-.32,3.47-.18,5.21-.29l-.13-.98c-.87.21-2.56.31-2.63,1.5-.01.23.17.41.37.48,1.13.41,2.31.27,3.47.04.97-.19,2.07-.29,2.89-.91.22-.16.33-.43.18-.68-.46-.79-1.99-.54-2.73-.48-1.48.11-2.97.37-4.46.25v1c1.35.06,2.67-.28,4-.45.66-.08,1.33-.14,1.99-.15.54-.01,1.07,0,1.59-.18.46-.16.49-.82,0-.96-.97-.28-2.15-.25-3.15-.25-1.24,0-2.48.11-3.71.14-2.4.06-4.8-.08-7.2.05v1c2.4-.2,4.77-.61,7.15-.98s4.72-1.02,7.12-.88v-1c-2.01.02-4.01-.05-6.01.06-1.76.09-3.55.21-5.24.79-.24.08-.44.35-.35.62.47,1.34,2.95,1,4.02.93.82-.05,1.63-.11,2.45-.15s1.56-.08,2.34-.13c.73-.04,1.39,0,2.09-.26.52-.2.45-.95-.13-.98-3.73-.23-7.44.43-11.17.36-.57,0-.67.83-.13.98,2.12.59,4.77.41,6.72-.63.34-.18.31-.68,0-.86-.91-.55-1.87-.33-2.88-.33s-2.11.02-3.17.07c-1.94.09-3.88.24-5.66,1.07-.24.11-.31.47-.18.68.6.98,2.6.5,3.5.38.59-.08,1.09-.16,1.67-.2.93-.05,1.93-.04,2.81-.41.59-.24.38-1.08-.27-.96-.53.1-1.03.34-1.57.41-.63.08-.64,1.09,0,1s1.21-.34,1.84-.45l-.27-.96c-1.2.5-2.62.33-3.89.52-.57.08-1.14.16-1.71.2-.28.02-.57.03-.85.01-.1,0-.19-.02-.29-.03-.13-.01-.19-.13-.12-.01l-.18.68c1.61-.75,3.41-.86,5.15-.94.89-.04,1.78-.06,2.67-.07.49,0,1,.03,1.49,0,.55-.04.88-.11,1.38.19v-.86c-1.72.91-4.09,1.05-5.95.53l-.13.98c3.73.06,7.44-.6,11.17-.36l-.13-.98c-.6.23-1.19.19-1.82.23s-1.32.08-1.97.11c-.79.04-1.59.07-2.38.14-.67.05-1.35.09-2.02.08-.21,0-1.39.02-1.48-.24l-.35.62c1.67-.57,3.44-.67,5.19-.76,1.93-.1,3.86-.03,5.79-.05.65,0,.64-.96,0-1-2.33-.14-4.61.47-6.89.84-2.45.4-4.91.82-7.38,1.03-.63.05-.65,1.04,0,1,2.32-.13,4.63,0,6.95-.05,1.15-.02,2.3-.11,3.45-.13.6-.01,1.2,0,1.79.04.53.04,1.09.02,1.6.17v-.96c-.57.2-1.18.13-1.78.16s-1.2.09-1.79.17c-1.25.16-2.48.47-3.75.41-.65-.03-.63.95,0,1,1.33.11,2.65-.08,3.97-.2.44-.04.88-.08,1.32-.08.24,0,.49-.01.73.02.14.02.37.13.3.01l.18-.68c-.69.52-1.61.6-2.44.76-1.06.21-2.1.38-3.14,0l.37.48c0,.07.21-.1.31-.14.19-.08.39-.13.59-.18.33-.08.66-.14.99-.21.54-.13.44-1.02-.13-.98-1.68.11-3.35-.02-5.02.24s-3.25.76-4.93.57l.35.85c.51-.48,1.45-.45,2.1-.55,1.06-.16,2.09-.17,3.17-.15.57,0,.68-.83.13-.98-.97-.27-2.08.09-3.06.18-1.27.11-2.55.21-3.83.31s-2.49.15-3.74.16-2.6.12-3.84-.13l.12.91c.51-.31,1.21-.33,1.79-.45.98-.19,1.95-.41,2.93-.56,1.11-.16,2.23-.23,3.35-.21,1.05.02,2.1.23,3.15.2.64-.02.65-1,0-1-4.12-.02-8.22-.41-12.32-.77-2.03-.18-4.07-.25-6.1-.27-.91,0-1.81,0-2.72.04-.86.05-1.73.1-2.55-.18v.96c.79-.18,1.74-.02,2.55-.03.94-.01,1.87-.05,2.81-.09,1.92-.09,3.83-.2,5.75-.21s3.73.06,5.6.15,3.75.13,5.6.49v-.96c-1.51.61-3.22.41-4.81.47-1.93.08-3.87.15-5.8.18-1.81.03-3.65.09-5.46-.04-.91-.06-1.82-.17-2.72-.25-.74-.06-1.56-.1-2.27.16-.4.14-.51.68-.12.91.52.31,1.13.21,1.69.12.82-.13,1.66-.13,2.49-.13,2,0,3.98.18,5.96.43s3.95.53,5.95.6c1.01.03,2.02.03,3.04.03.66,0,1.66-.23,2.25.12l-.23-.56c-.07.32-3.12-.26-3.37-.28-2.23-.21-4.48-.17-6.71,0s-4.63.38-6.94.56-4.5.4-6.76.14l.48.63c.02-.07.84-.17.99-.2.64-.11,1.27-.22,1.91-.28,1.42-.14,2.85-.16,4.28-.16s2.87.05,4.31.03,2.93-.32,4.35-.09l-.12-.91c-.36.2-.67.19-1.07.23-.46.04-.92.12-1.38.15-.84.05-1.69.04-2.53.05-1.72.01-3.44,0-5.16.09s-3.41.19-5.11.29c-.69.04-1.39.06-2.08.13-.3.03-1.28.24-1.48-.05l-.18.68c1.84-.94,3.97-.76,5.97-.81,2.2-.05,4.4-.14,6.6-.22s4.27-.21,6.4-.28c1.11-.04,2.21-.05,3.32,0,.53.03,1.07.04,1.6.14s.94.34,1.46.38c.47.03.61-.55.35-.85-.94-1.1-2.66-.76-3.92-.62-2.16.23-4.41-.11-6.57-.26-4.81-.35-9.61-.02-14.42-.11-1.3-.02-2.6-.09-3.89-.19-.61-.05-1.23-.11-1.84-.14-.24,0-.96.09-1.12-.12l-.18.68c.37-.25,1.31-.05,1.74-.03.92.04,1.82.18,2.71.39.54.13,1.08.25,1.63.35.68.13,4.02.79,3.41-.91-.08-.21-.25-.37-.48-.37-3.07-.01-6.05,1.76-9.11.99l.35.35c-.13-.5,2.11-.86,2.45-.91,1.87-.31,3.77-.29,5.65-.1v-1c-1.75.13-3.51.28-5.17.85-.15.05-.32.18-.35.35-.23,1.51,2.71,1.25,3.55,1.23,1.61-.03,3.22-.16,4.82-.32l-.13-.98c-1.7.61-3.53.72-5.32.66-.92-.03-1.84-.11-2.74-.28s-1.98-.34-2.75-.85l-.39.91c2.27.44,4.6.53,6.79-.32.59-.23.37-1.11-.27-.96-2.42.55-4.87.92-7.34,1.16-1.22.12-2.45.21-3.68.28s-2.52-.03-3.8-.07v1c1.07,0,2.13.16,3.2.2s2.04.01,3.07.02c.55,0,.69-.86.13-.98-2.24-.49-4.55-.58-6.83-.83-1.18-.13-2.36-.25-3.53-.4-.77-.1-1.71-.11-2.37-.56l-.12.91c.62-.12,1.25.04,1.87.12.69.09,1.39.1,2.08.1,1.48,0,2.95-.12,4.42-.25,1.34-.12,2.68-.22,4.01-.37.81-.09,1.83-.37,2.61-.05l-.35-.62c.09-.01.08,0-.04,0-.08,0-.17,0-.25,0-.12,0-.23-.03-.35-.05-.29-.05-.56-.07-.86-.03-1.05.14-2.06.35-3.13.36-2.08.02-4.12-.42-6.18-.68s-3.99-.18-6.01.19-4.25.93-6.4.55l-.13.98c1.06-.13,2.15-.22,3.22-.23.91,0,1.81.2,2.72.05.3-.05.53-.16.81-.27.44-.17.93-.19,1.4-.23,1.03-.1,2.06-.09,3.1-.05,2.05.08,4.1.09,6.14.12.94.02,1.9.02,2.83.18.61.11,1.67.32,2.01.91l-.05-.39c-.11.26-1.34.23-1.57.24-.66.01-1.31.02-1.97.04-2.16.07-4.31.09-6.47.33s-4.31.54-6.47.38c-.53-.04-1.06-.09-1.57-.19-.24-.05-1.35-.22-1.38-.55l-.25.43c.68-.39,1.64-.23,2.39-.15.89.1,1.76.2,2.65.25,2.52.12,5.04.13,7.56.19,5.11.13,10.2.82,15.31.72v-1c-2.01.24-4.02.53-6.05.6s-4.1.01-6.15.03c-4.09.03-8.19.21-12.27-.23-.44-.05-.65.58-.35.85.61.56,1.68.31,2.41.2,1.35-.21,2.74-.26,4.11-.29,1.69-.03,3.34.09,5.01.31.84.11,1.63.17,2.48.08.75-.08,1.52-.07,2.26-.19.41-.06.42-.58.22-.84-.62-.78-1.43-.77-2.36-.72-1.27.06-2.53.17-3.8.23-2.58.12-5.15.39-7.71.68-1.28.15-2.56.29-3.85.43-1.04.11-2.09.29-3.13.37-.48.04-.55-.38-.99-.49-.4-.1-.73.08-1.11.14-.32.05-.59-.09-.9-.13-.27-.04-.54-.02-.8-.02-.65.01-1.29,0-1.94.02v1c.65-.04,1.26-.23,1.9-.33s1.32-.09,1.98-.09v-1c-.33,0-.64.07-.92-.13l.23.56c.1-.26,1.79.08,1.95.09.95.09,1.89.08,2.84.05,2.01-.07,4.02-.21,6.03-.19.48,0,.7-.7.25-.93-1.07-.57-2.43-.41-3.59-.51-2.09-.18-4.19-.23-6.29-.21s-4.14.16-6.21.22c-1.81.05-3.81.22-5.53-.45v.96c.94-.32,2.03-.37,3.01-.46.93-.09,1.91-.13,2.84.06,1.11.23,2.53.87,3.61.26.18-.1.3-.36.23-.56-.33-.94-1.81-.46-2.52-.4-1.7.15-3.57-.52-5.3-.73-1.97-.24-3.96-.03-5.93.06-.52.02-1.04.06-1.57.06-.49,0-1.32.08-1.72-.25l-.1.79c.67-.32,1.56-.11,2.26-.03.8.09,1.59.07,2.4.04,2.03-.07,4.05-.2,6.08-.26s3.95-.12,5.92.01c.72.05,1.44.11,2.15.19.57.07,1.35.13,1.78.55l.22-.84c-1.47.45-3.06.24-4.58.33-1.83.11-3.65.25-5.48.39s-3.55.28-5.33.28-3.62-.21-5.43-.22c-.55,0-.7.88-.13.98,2.5.46,5.07.68,7.59.94,1.22.13,2.43.13,3.66.12.5,0,1,0,1.5-.02.19-.01.37-.03.56-.03s.42.13.29-.06l.18-.68c-.72.31-1.53.15-2.27.06s-1.5-.13-2.25-.15c-1.59-.03-3.19.08-4.77.2s-3.1.26-4.66.18c-.54-.03-2.22.1-2.49-.47l-.08.61c.76-.65,2.04-.53,2.98-.5.46.02.91.04,1.37.02.57-.02,1.18-.1,1.7.21l.12-.91c-.46.1-1.11-.17-1.56-.25-.53-.1-1.06-.18-1.6-.22-1.11-.1-2.23-.13-3.34-.16-2.29-.06-4.54-.18-6.82-.44s-4.51-.28-6.79-.16c-1.96.11-4.03.37-5.93-.26l.37.48c0,.07-.05.04.06,0,.15-.06.3-.12.47-.16.5-.11,1.02-.13,1.53-.14,1.39-.03,2.78.07,4.16.19,1.13.1,2.26.23,3.39.34,1.93.18,3.91.11,5.85.17,3.06.09,6.14.49,9.2.18l-.25-.93c-.45.33-1.17.26-1.7.26-.8,0-1.6.02-2.41.03-2.06.04-4.11.15-6.16.25-1.8.09-3.6.12-5.4.16-1.18.03-2.75.17-3.74-.59l.18.68c.3-.67,1.86-.35,2.42-.27,1.42.22,2.83.53,4.25.81,1.6.31,3.2.58,4.79.94s3.1.62,4.75.62c.64,0,.64-1,0-1-3.21-.02-6.43.26-9.64.46s-6.3.46-9.41-.06l.3.23s.02.18-.05.17c.03,0,.24-.11.27-.12.31-.1.65-.12.97-.13.82-.04,1.65,0,2.47.05.52.04,1.05.08,1.57.14.76.08,1.5.23,2.25.36s1.54-.02,2.24.21l.27-.96c-3.21-.45-6.42-.72-9.66-.41s-6.53,1.13-9.71.56l.22.84c.2-.17.69-.16.96-.21.41-.08.83-.15,1.25-.19.76-.09,1.53-.13,2.3-.18,1.58-.1,3.17-.14,4.75-.23,1.38-.07,2.75-.21,4.13-.35.65-.06,1.3-.11,1.95-.09.34.01.68.04,1.01.11.13.03.26.06.39.1.27.08.3.19.48-.02l.49-.13c-1.94-.4-3.95-.2-5.91-.18-2.07.03-4.12-.18-6.17-.43s-4-.36-6.02-.16c-1.02.1-2.04.27-3.06.4-.8.11-1.79.04-2.5.46-.37.21-.3.81.12.91,1.12.29,2.16.39,3.3.23.38-.05,1.01-.12,1.52-.17.72-.06,1.45-.11,2.18-.1.3,0,.61.01.91.07.1.02.24.09.34.09.12,0,.03.08,0-.05l.35-.62c-.75.16-1.48-.36-2.23-.4-.82-.05-1.66.03-2.47.09-.76.06-1.53.07-2.29.12-.21.01-.41.06-.62.08-.1.01-.23,0-.33.03h-.12c-.16-.02-.14.05.07.23l-.5.5c.82,0,1.56-.08,2.37-.2s1.59,0,2.36-.26c.51-.18.46-1-.13-.98s-1.11-.22-1.71-.16-1.16.14-1.75.17-1.12.08-1.68.16-1.23.32-1.74.07l.1.79c.43-.37.98-.13,1.49-.11.65.02,1.31-.04,1.95-.11,1.22-.14,2.41-.43,3.59-.79s2.4-.76,3.62-1.08c.53-.14,1.07-.27,1.57-.49.44-.2.93-.54,1.43-.38l.13-.98c-.38.03-.74-.09-1.12-.13-.55-.07-1.11-.06-1.66-.04-.97.04-1.93.14-2.9.29-1.04.16-2.08.36-3.12.48-.88.11-1.78.14-2.65.35-.73.18-1.45.49-2.01,1-.13.12-.27.26-.35.42-.04.08-.05.34-.1.39-.05.05-.73.03-.91.13-.34.18-.79.65-.86,1.04-.08.45.28.82.73.8.5-.03.97-.45,1.33-.76.34-.29.79-.66,1-1.07.14-.28.03-.65-.3-.73-.85-.22-1.2.45-1.93.65-.34.09-.63.12-.94.33-.37.26-.63.65-.84,1.03-.28.5.37,1.01.79.61.6-.58,1.24-1.12,1.81-1.74.27-.29.1-.9-.35-.85-.88.09-1.55.62-2.36.92l.39.91c1.19-.62,2.36-1.26,3.49-1.98.42-.27.25-.91-.25-.93-.7-.03-1.36.44-1.93.79-.38.24-1.38,1.06-1.84.75l.23.56c.26-.63,1.54-.88,2.1-1.1.72-.27,1.69-.93,2.48-.72l-.3-.73c-.09.14-.5.22-.66.29-.3.13-.59.27-.89.4-.55.24-1.12.44-1.7.58-.42.11-.84.2-1.27.26-.31.04-.94.16-1.17-.1l-.1.79c1.26-.86,2.83-1.06,4.3-1.29.82-.13,1.64-.29,2.48-.27.43.01,1.75-.04,1.96.44l.08-.61c-.2.21-.62.22-.89.27-.53.11-1.05.24-1.59.34-.95.17-1.9.37-2.87.37v1c.74-.02,1.49.05,2.23-.01s1.41-.2,2.1-.34c1.52-.29,3.05-.31,4.59-.37s2.99-.13,4.49-.23c1.27-.09,2.7-.29,3.91.22l.12-.91c-1.28.28-2.62,0-3.9-.08-1.54-.1-3.08-.23-4.61-.51l-.13.98c1.86.08,3.7.33,5.55.56s3.6.35,5.39.56,3.55.42,5.34.33,3.61-.34,5.42-.4c.64-.02.64-1.02,0-1h0Z"/>
  <path class="cls-12" d="m3.93,86.85c-.14.63-.32,1.25-.42,1.89-.09.58-.23,1.47.3,1.89.99.78,1.42-1.03,1.5-1.69.08-.7.03-1.4.08-2.09.05-.77.2-1.52.2-2.29,0-.54-.88-.7-.98-.13-.2,1.14-.3,2.28-.52,3.42l.91-.12c-.36-.66-.12-1.53-.09-2.24.04-.93-.1-1.87-.24-2.79-.07-.48-.89-.48-.96,0-.17,1.2-.24,2.39-.26,3.6-.01,1.11-.06,2.24.33,3.3.16.44.83.51.96,0,.18-.68,0-1.44-.07-2.13-.08-.73-.17-1.46-.28-2.19-.2-1.31-.15-2.69-.62-3.94-.19-.5-.99-.47-.98.13.01,1.1-.02,2.21.04,3.31s.22,2.12-.03,3.16l.96.27c.2-1.04.27-2.09.39-3.14.1-.87.29-1.74.03-2.6-.12-.4-.7-.51-.91-.12-.52.95-.51,1.98-.49,3.04.03,1.23.04,2.46,0,3.69-.02.66.92.62,1,0,.16-1.26.29-2.53.38-3.79.08-1.14.17-2.26-.23-3.35-.13-.35-.55-.5-.84-.22s-.43.6-.41.99c.03.49.1.96.1,1.45.01,1.15-.19,2.28-.18,3.42,0,.48.69.7.93.25.79-1.45.14-3.34.03-4.87-.05-.63-1.01-.65-1,0,.02,1.62.23,3.23.6,4.81l.84-.49c-.53-.68-.22-1.88-.21-2.67.02-1.06-.33-2.27.17-3.26l-.93-.25c.03,1.54-.23,3.05-.38,4.58-.07.71-.12,1.4-.03,2.11s.42,1.36.41,2.04l.98-.13c-.33-1.36-.25-2.73-.09-4.1.07-.59.21-1.21.17-1.8s-.4-1.24-.13-1.79l-.93-.25c-.04.93.06,1.86.18,2.78.11.85.3,1.71.05,2.55l.98.13c0-.69-.11-1.37-.24-2.04-.13-.73-.39-1.48-.43-2.22-.03-.64-1.02-.65-1,0,.03.87-.04,1.75.03,2.62s.19,1.74.2,2.62c0,.64,1,.64,1,0,0-.91,0-1.82,0-2.73,0-.84-.14-1.64-.23-2.47-.07-.62-1.02-.66-1,0,.03,1.28.08,2.59-.03,3.86-.06.68-.24,1.75.35,2.26.35.3.8.08.85-.35.25-2,.06-4.02.05-6.03,0-.64-.99-.64-1,0-.02,1.27-.15,2.54-.19,3.82-.03.93-.02,1.93.33,2.81.23.59,1.1.38.96-.27-.34-1.57-.22-3.18-.38-4.77-.05-.55-.15-1.07-.29-1.6-.09-.35-.39-1.13-.08-1.43l-.79-.1c.24.52.19,1.14.22,1.7.04.67.1,1.34.16,2.01.05.61.1,1.22.07,1.84s-.25,1.23-.24,1.86.98.64,1,0c.06-1.5-.38-2.95-.4-4.44-.01-.72.14-1.43.18-2.15.02-.36-.22-1.12-.02-1.41l-.91-.12c.37,1.39.41,2.81.39,4.24,0,.6-.03,1.2.04,1.8.08.64.47,1.28.48,1.9l.93-.25c-.43-.67-.45-1.45-.46-2.23,0-.93-.02-1.85-.07-2.78s-.13-1.84-.24-2.75c-.08-.63,0-1.39-.45-1.88-.3-.32-.85-.07-.85.35,0,.53.16,1.03.18,1.56.02.49,0,.97,0,1.45.02.99.11,1.98.25,2.95.13.89.55,1.86.41,2.76-.09.62-.27,1.15.31,1.58.25.18.67,0,.73-.3.2-.93-.03-1.85-.12-2.77-.11-1.09-.25-2.18-.38-3.26-.08-.62-1.01-.66-1,0,.02,1.19.12,2.41,0,3.59-.08.81-.33,1.64.09,2.41.24.44.94.24.93-.25-.02-1.23-.3-2.51.1-3.71.15-.47-.51-.86-.84-.49-.38.43-.36,1.01-.31,1.55.06.78-.12,1.46-.18,2.23h1c0-.58-.02-1.15.13-1.72.1-.38.18-.76.03-1.14s-.7-.53-.91-.12c-.26.5-.25,1.04-.21,1.6.04.46.25,1.27-.12,1.63l.85.35c0-.86-.02-1.73-.02-2.59,0-.43-.01-.87.02-1.29.03-.39.17-.77.19-1.16.02-.34-.11-.62-.17-.95-.06-.35-.06-.73-.07-1.08-.02-.66,0-1.34.39-1.9l-.91-.12c.11.39.04.8.03,1.19-.01.53,0,1.05,0,1.58,0,1.1-.02,2.21,0,3.31.02.64.98.64,1,0,.03-.94-.21-1.84-.36-2.77-.17-1.02-.09-2.06-.09-3.09h-1c0,1.32.02,2.63,0,3.95,0,.62-.07,1.24-.02,1.87.02.22.05.45.11.66.03.12.19.46.16.52h.86c-.5-1.07-.11-2.39.04-3.5.17-1.28.14-2.62.07-3.91-.04-.64-.98-.65-1,0-.03.8.19,1.58.43,2.34.16.5.27,1.23.61,1.65.31.39.87.46,1.26.14s.42-.88.78-1.19h-.71c.3.26.25.51.27.88.02.4.06.8.09,1.2.05.77.09,1.53.12,2.3.05,1.37.13,2.72.75,3.97.07.15.27.26.43.25,1.47-.09,1.65-2.31,1.7-3.41.04-.93.1-3.3-1.26-3.39-.23-.02-.41.17-.48.37-.55,1.58-.35,3.25-.47,4.89-.05.65.93.63,1,0,.19-1.66.19-3.34.67-4.95l-.91.12c.42.64.21,1.66.17,2.39-.06,1.24-.27,2.49-.18,3.74.04.56.79.68.98.13.62-1.79.82-3.73,1.78-5.39l-.91-.39c-.41,2.29-.62,4.59-.68,6.91-.01.46.54.63.85.35.66-.58.83-1.57,1.01-2.38.3-1.34.58-2.69.96-4.01h-.96c.16.77.05,1.59.01,2.36-.05,1.07-.17,2.13-.09,3.2.03.45.69.73.93.25.55-1.1.75-2.32,1.01-3.51.23-1.04.15-2.25.82-3.14l-.93-.25c.02.85-.28,1.65-.48,2.47-.22.88-.41,1.77-.41,2.68,0,.59.8.65.98.13.47-1.3.37-2.76.93-4.02l-.93-.25c.09,1.44-.34,2.85-.02,4.28.09.38.57.47.84.22.48-.45.53-1.16.55-1.79.02-.86-.02-1.73.23-2.57l-.98-.13c-.07.7-.06,1.41-.18,2.11-.1.57-.54,1.08-.5,1.65.04.64,1.04.64,1,0-.02-.24.25-.57.33-.81.1-.3.15-.61.19-.92.09-.68.1-1.36.17-2.04.05-.58-.83-.66-.98-.13-.22.76-.24,1.56-.26,2.34,0,.46.11,1.22-.26,1.57l.84.22c-.3-1.32.14-2.67.06-4.01-.03-.44-.71-.74-.93-.25-.61,1.36-.53,2.87-1.03,4.26l.98.13c0-1.77.93-3.39.89-5.15-.01-.53-.65-.63-.93-.25-.67.88-.67,2.01-.86,3.06-.21,1.19-.43,2.51-.98,3.59l.93.25c-.14-1.92.44-3.93.04-5.83-.11-.5-.83-.45-.96,0-.36,1.26-.62,2.55-.92,3.82-.16.69-.24,1.64-.8,2.13l.85.35c.05-2.23.25-4.45.64-6.65.1-.53-.61-.9-.91-.39-1.01,1.74-1.23,3.75-1.88,5.63l.98.13c-.1-1.31.11-2.64.19-3.96.05-.86.18-1.92-.32-2.67-.24-.36-.79-.3-.91.12-.51,1.69-.5,3.48-.7,5.22h1c.11-1.55-.09-3.13.43-4.62l-.48.37c-.16-.01-.05-.03,0,.13.06.2.12.39.16.59.11.55.12,1.12.09,1.67-.02.43-.13,2.37-.7,2.41l.43.25c-.7-1.39-.59-3.05-.67-4.57-.04-.8-.11-1.6-.16-2.4-.04-.64-.04-1.14-.56-1.59-.22-.19-.49-.19-.71,0-.25.22-.37.52-.51.81-.04.07-.11.27-.19.32.15,0,.17-.04.08-.16-.02-.08-.05-.17-.07-.25-.28-.97-.72-1.91-.68-2.94h-1c.08,1.46.08,2.94-.14,4.39-.18,1.19-.36,2.39.17,3.52.15.33.71.33.86,0,.2-.43.09-.79-.04-1.22-.19-.64-.1-1.33-.08-1.98.05-1.43.01-2.87.01-4.3,0-.64-1-.64-1,0,0,.98-.07,1.97.06,2.95s.42,1.92.39,2.91h1c-.03-1.18,0-2.37,0-3.56,0-.52-.02-1.04.01-1.56.02-.42.05-.83-.07-1.23-.13-.43-.67-.47-.91-.12-.75,1.08-.61,2.74-.36,3.96.1.47-.03.84-.09,1.3s-.05.93-.05,1.39c0,.94.03,1.89.02,2.83,0,.44.55.65.85.35.43-.42.51-.99.48-1.57s-.27-1.34,0-1.86l-.91-.12c.13.34-.08.73-.14,1.07-.08.5-.06,1.02-.06,1.53,0,.65.95.63,1,0s.27-1.19.22-1.81c-.02-.27-.22-1.04-.02-1.26l-.84-.49c-.43,1.29-.15,2.65-.13,3.98l.93-.25c-.33-.62.05-1.57.07-2.23.04-1.09,0-2.18-.02-3.26h-1c.12,1.01.26,2.02.36,3.03.09.88.37,1.87.18,2.74l.73-.3c.06.04.18-.59.19-.72.03-.3,0-.59-.04-.89-.12-.87-.37-1.71-.48-2.59s-.17-1.73-.16-2.59c0-.45.02-.89-.01-1.34s-.18-.88-.17-1.32l-.85.35c.14.15.12.86.15,1.06.06.44.11.88.15,1.32.08.91.13,1.82.16,2.73.04,1.42-.18,3.06.62,4.33.26.41.94.26.93-.25,0-.63-.34-1.18-.45-1.8-.13-.7-.07-1.42-.07-2.13.01-1.44-.05-2.87-.42-4.27-.12-.44-.68-.46-.91-.12-.28.4-.17.93-.12,1.38.07.74-.12,1.47-.16,2.21-.09,1.65.45,3.26.39,4.92h1c0-.65.22-1.31.24-1.97.03-.73-.05-1.47-.11-2.2-.11-1.2.04-2.63-.47-3.75-.14-.3-.57-.31-.79-.1-.84.84-.16,2.22.01,3.19.32,1.85.08,3.74.48,5.59l.96-.27c-.34-.85-.32-1.8-.29-2.7.04-1.22.17-2.43.18-3.66h-1c0,2.01.21,4.03-.05,6.03l.85-.35c-.34-.3-.05-1.48-.03-1.89.06-1.17.03-2.35,0-3.52h-1c.09.83.23,1.63.23,2.47,0,.91,0,1.82,0,2.73h1c0-.88-.12-1.75-.2-2.62s0-1.75-.03-2.62h-1c.08,1.44.68,2.8.67,4.26,0,.57.82.67.98.13.26-.84.14-1.69.02-2.55-.14-1.01-.26-2.03-.21-3.05.02-.49-.71-.69-.93-.25-.28.56-.26,1.07-.14,1.67.16.77.08,1.42-.01,2.2-.18,1.55-.26,3.08.1,4.6.13.56.98.42.98-.13,0-.68-.29-1.3-.4-1.96-.12-.73-.06-1.46.01-2.19.16-1.53.42-3.04.38-4.58-.01-.47-.7-.71-.93-.25-.63,1.24-.27,2.57-.31,3.89-.04,1.12-.23,2.31.51,3.26.33.42.94-.05.84-.49-.35-1.5-.55-3-.56-4.54h-1c.06.77.21,1.52.27,2.3.05.66.17,1.46-.16,2.06l.93.25c0-.92.19-1.83.19-2.75,0-.45,0-.89-.01-1.34,0-.28-.17-.88.02-1.06l-.84-.22c.4,1.08.26,2.2.18,3.33-.09,1.19-.22,2.37-.36,3.55h1c.03-1.1.02-2.19,0-3.29-.01-.98-.14-2.03.35-2.93l-.91-.12c.23.76.02,1.57-.06,2.34-.11.96-.17,1.92-.36,2.88-.12.62.81.9.96.27.26-1.07.15-2.12.08-3.2-.08-1.18-.04-2.36-.06-3.54l-.98.13c.42,1.12.38,2.32.55,3.48.1.71.21,1.42.29,2.14.07.64.29,1.47.13,2.1h.96c-.36-.98-.3-2-.29-3.03.01-1.12.06-2.22.22-3.33h-.96c.16,1.01.25,2,.17,3.01-.06.77-.12,1.55.26,2.26.2.36.83.31.91-.12.22-1.13.32-2.28.52-3.42l-.98-.13c0,.95-.2,1.88-.22,2.83s.03,1.83-.46,2.66l.43-.25c.28,0,.05.18.1,0,.02-.09-.01-.25-.01-.35,0-.32.06-.63.12-.94.09-.47.23-.93.33-1.4.14-.63-.83-.9-.96-.27h0Z"/>
  <path class="cls-12" d="m13.21,85.54c0,.8,0,1.61,0,2.41,0,.29.01.57.02.85,0,.18.04.44-.1.57l.79.1c-.38-.82-.19-1.82-.16-2.69.02-.52-.02-1.03.01-1.55s.22-1.07.03-1.6-.94-.44-.98.13c-.02.22.03.44.1.66.06.18.12.32.05.51l.84-.22-.18-.15c-.21-.17-.5-.21-.71,0-.17.17-.21.54,0,.71l.18.15c.3.24.7.16.84-.22.09-.26.09-.54.02-.81-.05-.21-.15-.4-.13-.63l-.98.13c.1.27.01.47-.02.75s-.05.54-.06.81c-.02.53.01,1.07-.01,1.6-.05.99-.11,1.98.31,2.91.14.32.57.29.79.1.52-.44.39-1.19.38-1.78-.01-.92,0-1.84,0-2.76,0-.64-1-.64-1,0h0Z"/>
  <path class="cls-12" d="m144.91,80.02c-.4-.03-.77-.09-1.15-.2l-.13.98c.61,0,1.19.13,1.8.2.54.06,1.1.07,1.58.35l-.18-.68c-.22.47-1.92.45-2.38.5-.52.06-2.07.64-2.43.22l-.1.79c.58-.29,1.29-.16,1.92-.28s1.2-.34,1.77-.59c.25-.11.3-.47.18-.68-.33-.57-1.52-.87-2.16-.84-.44.02-.66.25-.93.55-.3.33-.78.55-.99.96-.11.21-.07.43.08.61.89,1.07,4.49.26,3.71-1.42-.07-.16-.27-.25-.43-.25-.66,0-1.29.23-1.9.48-.43.17-1.02.34-1.24.78-.1.19-.09.45.08.61.65.61,3.54,1.59,3.83.17.23-1.12-1.14-1.02-1.76-.8-.83.3-2.13.29-2.67,1.07-.11.16-.09.48.08.61,1.22.95,2.88,0,4.21-.07.64-.03.65-1,0-1-.76,0-1.46-.12-2.19-.3-.61-.15-1.34-.27-1.75-.78l.08.61c.21-.34,1.13-.29,1.47-.3.53-.02,1.07-.04,1.61-.06,1.93-.08,3.86.08,5.78.21s3.66.07,5.5.01c1.21-.04,2.87.33,3.94-.35.37-.23.3-.78-.12-.91-.87-.27-1.73-.07-2.61.03-1.04.12-2.09.18-3.14.21s-2.05.07-3.07.13c-.83.05-1.67-.02-2.5.12-.34.06-.42.47-.3.73.35.74,1.43.8,2.13.85,1.04.07,2.11.02,3.15,0,1.81-.05,3.63-.22,5.44-.08s3.7.55,5.58.49c.64-.02.65-.99,0-1-1.67-.02-3.33.16-5.01.09s-3.22-.25-4.83-.39c-1.52-.14-3.03-.28-4.56-.31-.75-.01-1.77-.28-2.26.46-.16.24-.03.53.18.68.36.27.75.26,1.18.29.68.04,1.36.1,2.04.16,1.44.12,2.89.22,4.32.43l.13-.98c-1.5-.05-3,.09-4.5.16s-2.87-.13-4.34-.17v1c1.49.03,2.9.24,4.34.58,1.28.3,2.58.51,3.91.45,1.12-.04,2.29-.17,3.36-.5.59-.18,2.13-.61,1.94-1.49-.18-.79-1.74-.97-2.35-1.06-1.14-.16-2.31-.15-3.46-.13-1.48.03-2.96.2-4.44.27-.97.05-2.13.2-3.05-.17v.96c1.67-.43,3.41-.52,5.12-.67,1.6-.14,3.2-.27,4.8-.36s3.13-.14,4.7-.14c.64,0,1.28,0,1.93.03.34.02.76.07,1.06-.12.34-.22.32-.82-.12-.91-2.61-.57-5.26-.52-7.91-.44-1.33.04-2.67.05-4,.05-.67,0-1.35-.02-2.02,0-.64.01-1.28.12-1.91-.03v.96c.64-.15,1.28-.24,1.92,0,.53.2,1,.51,1.54.7,1.05.37,2.2.5,3.3.64,2.63.34,5.31.47,7.96.46s5.36-.18,8.03-.4c1.27-.11,2.54-.23,3.81-.35s2.89-.33,4.03.22l.12-.91c-.64.26-1.31.26-2,.28-.78.03-1.57.07-2.35.08-1.58.02-3.17-.02-4.75-.02s-3.17-.03-4.74-.17-3.18-.51-4.79-.54c-.32,0-.58.33-.48.63.28.91,1.4,1.07,2.22,1.17,1.21.14,2.46.1,3.68.13,2.13.06,4.25.09,6.38.22,1.02.06,2.04.14,3.07.17.55.02,1.52-.09,1.94.32l.22-.84c-1.28.39-2.77.19-4.09.13-1.54-.07-3.07-.3-4.61-.39s-3.01.16-4.53.19c-.59.01-1.93.05-1.62,1.05s2.06.68,2.79.57c1.58-.24,3.17-.36,4.76-.51,3.13-.29,6.26-.61,9.39-.8,1.76-.11,3.53-.12,5.29-.22,1.51-.09,3.09-.07,4.57-.38.47-.1.49-.88,0-.96-3.96-.66-7.98-.71-11.98-.92-1.94-.11-3.88-.17-5.82-.25s-4.02-.39-5.99-.22c-.43.04-.66.52-.35.85.76.84,2.72.58,3.72.55,2.51-.08,5.06.08,7.57.14,2.97.08,5.94.14,8.91.18s5.89.27,8.84.28v-1c-2.23,0-4.47-.19-6.7-.2s-4.6.07-6.9.2c-2.11.12-4.22.31-6.33.36-1.19.03-2.6-.13-3.67.47-.36.2-.31.82.12.91,2.44.52,5.11.31,7.6.31s5.19-.05,7.79-.12,5.3-.18,7.95-.12c1.23.03,2.45.12,3.67.17s2.47.06,3.67.39v-.96c-.67.12-1.42.02-2.1.02s-1.42,0-2.12,0c-1.34,0-2.68.05-4.02.08-2.67.06-5.35.08-8,.39-.63.07-.65.95,0,1,2.09.15,4.16-.09,6.24-.25s4.29-.22,6.43-.23l-.13-.98c-1.72.24-3.47.25-5.21.29s-3.4.2-5.1.23c-.78.02-1.57,0-2.35-.11-.37-.05-.76-.11-1.1-.28-.27-.13-.46-.36-.71-.51-.81-.47-2.18.12-2.81.68-.29.26-.12.73.22.84.54.16,1.07.08,1.62.06.85-.03,1.7,0,2.55-.05,1.73-.09,3.44-.35,5.16-.56s3.32-.38,4.98-.48c1.35-.08,2.74.09,4.05-.32.56-.17.42-.93-.13-.98-2.68-.24-5.43-.04-8.11-.05s-5.41.19-8.12.21c-.64,0-.64.99,0,1,.94.01,1.9-.19,2.83-.28,1.05-.1,2.09-.19,3.14-.27,2.1-.15,4.2-.22,6.3-.28.66-.02.63-.93,0-1-1.09-.13-2.2.32-3.28.47-1.64.23-3.28.43-4.92.63s-3.18.37-4.77.52c-1.46.14-3.14.11-4.51.68-.48.2-.48.99.13.98,1.11-.02,2.21.08,3.31.14s2.2,0,3.31-.04,2.1-.07,3.15-.14c.81-.06,1.94-.45,2.69-.04v-.86c-.7.37-1.77.36-2.53.4-.37.02-2.34.18-2.5-.32l-.13.49c1.32-1.13,3.47-1.49,5.14-1.73,2.18-.31,4.34-.07,6.51.16s4.26.31,6.39.48c1.02.08,2.33.42,3.2-.29.15-.13.2-.44.08-.61-1.04-1.38-3.63-1.3-5.17-1.3-1.13,0-2.27.05-3.4.04s-2.3-.29-3.43-.23c-.64.03-.65,1,0,1,1.78.01,3.58.06,5.37-.05.71-.04,2.19-.45,2.76.07l.22-.84c-1.53.25-3.25.02-4.8.02-1.76,0-3.53,0-5.29-.01-3.37,0-6.76.06-10.05.87-.34.08-.52.6-.22.84.96.75,2.18.28,3.29.17,1.57-.15,3.14-.31,4.72-.42,3.09-.21,6.2-.3,9.3-.37s6.3-.08,9.45-.08c1.53,0,3.06.05,4.59,0,1.05-.04,2.33-.29,3.3.2l.12-.91c-1.14.4-2.54.32-3.74.39-1.26.08-2.51.16-3.77.22-2.44.13-4.94.4-7.38.34v1c2.44-.08,4.88-.05,7.31.14,1.18.09,2.36.23,3.54.3,1.1.06,2.2.05,3.27.35v-.96c-1.15.43-2.4.4-3.61.46s-2.52.11-3.78.14c-2.54.05-5.07,0-7.61,0-.64,0-.64,1,0,1,1.24,0,2.48.04,3.72-.02,1.17-.06,2.34-.21,3.52-.21.54,0,1.11,0,1.63.14.47.13.89.42,1.37.53.89.21,1.91-.23,2.79-.33,4.46-.53,8.96.5,13.39-.46l-.27-.96c-1.03.24-2.19.14-3.24.11s-2.14-.1-3.22-.14c-2.15-.1-4.44,0-6.55-.43l-.13.98c.97-.01,1.93.13,2.9.18s1.97.03,2.95.03c2.04,0,4.09-.03,6.13-.03s4.1.02,6.16-.02,4.11-.06,6.1-.42c.56-.1.42-.99-.13-.98-7.11.11-14.21-.59-21.33-.61v1c3.59-.03,7.17.22,10.76.21s7.23-.01,10.84.21v-1c-6.99-.05-13.99-.03-20.98,0l.13.98c1.55-.23,3.16-.2,4.72-.27s3.17-.13,4.75-.21,3.11-.19,4.66-.3c1.47-.1,2.96-.32,4.43-.24v-1c-6.04.04-12.09-.26-18.1.37-.43.05-.76.7-.25.93,1.28.58,2.9.2,4.25.11,1.82-.12,3.64-.28,5.46-.39,3.76-.22,7.52-.06,11.28-.27.35-.02.54-.3.48-.63-.11-.64-1.26-.62-1.73-.65-1.26-.09-2.53-.08-3.79-.07-2.16.02-4.32.13-6.49.16-1.57.02-3.13.03-4.7.07-1.41.04-2.82.28-4.23.12l.13.98c1.47-.23,2.97-.15,4.45-.15s2.97,0,4.46,0c3.03,0,6.06.12,9.09.18s6.03.06,9.04.17c1.52.05,3.03.09,4.55.07.72,0,1.45-.02,2.17,0,.48,0,1.05-.05,1.48.2l.12-.91c-1.54.39-3.27.31-4.86.36s-3.16.09-4.74.18c-3.06.17-6.12.45-9.14,1.03-.53.1-.42.81,0,.96.8.29,1.75.06,2.56-.05,1.33-.19,2.68-.28,4.01-.43,2.99-.34,5.98-.75,8.98-.94s5.96-.19,8.94-.18,6.09-.1,9.15-.17l-.48-.37c-.1-.36.23-.32-.15-.21-.25.07-.5.14-.75.2-.65.14-1.31.23-1.97.31-1.36.17-2.73.28-4.1.38-1.58.11-3.16.15-4.74.19-1.48.04-2.96.08-4.43.15-.73.03-1.47.07-2.2.12-.42.03-.84.06-1.25.09-.45.04-.85.2-1.3.05l-.13.98c3.86-.46,7.75-.55,11.63-.69.64-.02.64-.97,0-1-1.32-.06-2.67.23-3.98.37-1.51.17-3.03.31-4.55.38-1.44.07-2.88.13-4.31.17s-2.8-.1-4.21-.11c-.64,0-.64.98,0,1,2.84.07,5.69.02,8.53-.18,1.31-.09,2.63-.16,3.93-.32.63-.08,1.27-.18,1.89-.34.73-.19,1.39-.44,2.16-.39v-1c-1.6,0-3.19-.17-4.79-.26s-3.33-.12-4.99-.35l-.13.98c1.23.03,2.47-.11,3.71-.17s2.37-.1,3.56-.19,2.39-.22,3.59-.33c1.13-.1,2.28-.12,3.4-.35.59-.12.39-.93-.13-.98-3.09-.32-6.2.06-9.23.69-.53.11-.42.8,0,.96.92.35,1.97.3,2.95.29,1.46-.02,2.92-.13,4.39-.21,2.86-.14,5.74-.26,8.6-.15,1.5.06,2.99.18,4.47.4,1.29.2,2.57.47,3.87.59,1.44.13,2.9.13,4.34.27.59.05,1.14.23,1.72.32.37.05.63,0,.91-.25s.13-.75-.22-.84c-1.43-.34-2.88-.24-4.33-.28-1.67-.04-3.34-.13-5.01-.15s-3.27-.05-4.9-.02c-1.45.02-3.02.01-4.41.46-.43.14-.47.67-.12.91.53.36,1.01.34,1.62.24.97-.15,1.97-.17,2.96-.19,1.48-.03,3.05-.31,4.49.15v-.96c-.71.16-1.5.03-2.23.03s-1.44-.02-2.15-.02c-1.57,0-3.13.25-4.69.23v1c.11,0,.23,0,.34,0,.64,0,.64-.98,0-1-1.37-.04-2.85-.1-4.12.49-.46.21-.22.95.25.93,4.25-.12,8.5-.5,12.75-.62,2.09-.06,4.2.04,6.28.16,1.04.06,2.06.18,3.1.31.91.12,1.94.02,2.8.35l.27-.96c-1.93-.3-3.87-.43-5.82-.51-.93-.04-1.86-.08-2.79-.11-.52-.01-1.03-.03-1.55-.04-.54,0-1.04.1-1.58-.03l-.13.98c1.61-.2,3.24-.17,4.86-.23s3.28-.15,4.91-.21c3.4-.14,6.8-.19,10.2-.12.66.01.62-.93,0-1-3.14-.35-6.3-.42-9.47-.43s-6.28-.09-9.4.35l.27.96c5.28-1.03,10.67-.34,15.99-.31v-1c-2.49,0-4.98.04-7.47-.02s-4.77-.47-7.15-.38l.13.98c1.34-.38,2.86-.41,4.25-.51,1.52-.11,3.05-.13,4.58-.11s2.96.08,4.44.13c1.39.05,2.88-.14,4.24.12v-.96c-.94.19-1.87.04-2.81-.03-.89-.06-1.78-.09-2.67-.11-1.79-.03-3.57.02-5.36.06-3.57.08-7.15.23-10.72.21v1c3.98.01,7.92-.78,11.89-.63,1.99.08,3.96.37,5.94.57.97.1,1.96.14,2.92.35.86.19,1.63.64,2.5.75v-1c-1.88-.19-3.79.02-5.67.12-.91.05-1.83.1-2.74.15s-1.76,0-2.62.19c-.47.1-.49.88,0,.96,1.19.21,2.36.09,3.56.04,1.32-.06,2.64-.02,3.97.04s2.51.09,3.76.1c.69,0,1.5.18,2.15-.08.42-.16.53-.85,0-.96-.73-.16-1.51.03-2.25.09s-1.5.12-2.25.17c-1.55.1-3.11.2-4.67.18-.64,0-.64.98,0,1,2.19.06,4.38-.18,6.57-.2,1.02,0,2.04-.01,3.06,0,.9.02,1.79.08,2.67-.17.58-.17.4-.91-.13-.98-1.91-.25-3.84-.45-5.76-.21-.51.06-.73.85-.13.98,1.01.22,2.01.16,3.03.19.83.02,1.7.15,2.49-.18.4-.17.55-.87,0-.96-1.84-.33-3.7-.31-5.56-.27-.64.01-.64.99,0,1,1.95.04,3.89-.54,5.83-.23v-.96c-1.7.39-3.47-.08-5.18-.22l.13.98c2.13-.32,4.28-.26,6.42-.07.56.05.68-.87.13-.98-2.67-.55-5.42-.49-8.07-1.12v.96c1.1-.17,2.22.07,3.32.14,1.29.08,2.58.06,3.87.06v-1c-.99.02-1.95-.18-2.93-.26s-1.95-.06-2.93.04c-.52.06-.73.85-.13.98,1,.23,2.02.27,3.05.26.51,0,1.03-.01,1.54-.05.33-.02,1.32-.31,1.61-.14l.39-.91c-.53-.08-1.06-.13-1.6-.13-.64,0-.64,1.01,0,1,.45,0,.89.02,1.34.09.53.08.91-.61.39-.91-.34-.2-.59-.18-.97-.12-.64.11-1.3.14-1.95.16-1.18.03-2.36.06-3.52-.2l-.13.98c.98-.1,1.95-.12,2.93-.04s1.95.27,2.93.26c.64-.01.65-1,0-1-1.36,0-2.74.03-4.1-.08-1.13-.09-2.23-.26-3.36-.09-.5.08-.46.86,0,.96,2.65.62,5.4.57,8.07,1.12l.13-.98c-2.23-.2-4.46-.23-6.68.11-.59.09-.39.94.13.98,1.81.15,3.63.6,5.44.19.46-.1.49-.89,0-.96-2.05-.33-4.05.24-6.09.19v1c1.77-.03,3.55-.07,5.3.24v-.96c-.71.3-1.48.17-2.23.14-.93-.03-1.85.05-2.77-.15l-.13.98c1.92-.23,3.85-.03,5.76.21l-.13-.98c-.92.27-1.9.14-2.84.13s-1.96-.01-2.94,0c-2.09.03-4.17.26-6.26.2v1c1.45.02,2.9-.06,4.35-.16.75-.05,1.49-.1,2.24-.16s1.6-.31,2.31-.16v-.96c-.59.23-1.42.04-2.04.04-1.2,0-2.4-.05-3.61-.09s-2.32-.09-3.49-.05c-1.26.03-2.52.23-3.77.01v.96c.86-.18,1.78-.12,2.66-.17s1.83-.1,2.74-.15c1.79-.09,3.58-.29,5.37-.11.65.06.62-.92,0-1-.89-.12-1.74-.64-2.65-.8s-1.74-.21-2.61-.29c-2.03-.2-4.06-.5-6.1-.58-3.98-.16-7.92.64-11.89.63-.64,0-.64,1,0,1,3.68.02,7.36-.14,11.03-.22,1.79-.04,3.57-.08,5.36-.05s3.68.46,5.43.09c.47-.1.48-.87,0-.96-1.33-.25-2.69-.09-4.03-.13-1.64-.06-3.27-.13-4.91-.15s-3.16,0-4.73.12c-1.43.11-2.97.15-4.36.54-.53.15-.44,1.01.13.98,2.38-.1,4.77.32,7.15.38s4.98.02,7.47.02c.64,0,.64-1,0-1-5.43-.04-10.89-.71-16.26.35-.64.13-.36,1.05.27.96,3.12-.45,6.3-.33,9.45-.32s6.11.09,9.15.43v-1c-3.4-.07-6.8-.02-10.2.12-1.64.07-3.28.15-4.91.21s-3.24.03-4.86.23c-.51.06-.73.84-.13.98.86.2,1.74.06,2.62.08.98.02,1.96.06,2.94.1,2.07.09,4.13.19,6.17.51.64.1.87-.73.27-.96-.82-.32-1.73-.23-2.59-.33-1.04-.12-2.06-.27-3.1-.34-2.13-.14-4.29-.24-6.43-.2s-4.37.27-6.56.38-4.34.19-6.51.25l.25.93c1.08-.5,2.45-.39,3.61-.35v-1c-.11,0-.23,0-.34,0-.64,0-.64.99,0,1,1.67.03,3.33-.24,5-.23.82,0,1.64,0,2.46.02.64.02,1.25.07,1.88-.07.5-.11.45-.82,0-.96-1.3-.41-2.68-.27-4.02-.21-.79.04-1.57.04-2.36.08-.67.04-1.89.41-2.46.02l-.12.91c1.4-.45,3.01-.41,4.46-.42s3.06,0,4.59.03,3.12.09,4.68.14c1.46.05,2.96-.09,4.39.26l-.22-.84s-1.29-.3-1.34-.31c-.6-.07-1.21-.11-1.81-.16-1.39-.11-2.78-.09-4.17-.3-2.59-.39-5.13-.8-7.76-.88s-5.42.03-8.12.17c-1.36.07-2.71.17-4.07.2-.98.02-2.06.11-2.99-.25v.96c2.94-.62,5.96-.96,8.96-.66l-.13-.98c-1.12.23-2.3.24-3.44.34s-2.39.24-3.59.32c-2.29.16-4.66.4-6.96.34-.55-.01-.7.9-.13.98,1.64.22,3.29.28,4.94.36s3.4.28,5.11.28c.65,0,.64-.96,0-1-1.36-.09-2.69.56-4.04.72s-2.62.22-3.93.32c-2.84.2-5.68.25-8.53.18v1c1.36.01,2.69.16,4.06.12,1.49-.04,2.98-.11,4.47-.18s2.93-.2,4.39-.36c1.36-.15,2.77-.46,4.14-.39v-1c-3.88.14-7.77.23-11.63.69-.54.06-.7.8-.13.98s1,.07,1.57-.01c.72-.1,1.47-.11,2.2-.15,1.32-.07,2.63-.12,3.95-.16,1.93-.06,3.86-.08,5.78-.2,2.26-.13,4.57-.29,6.8-.72.6-.12,2.09-.34,1.85-1.27-.06-.21-.26-.37-.48-.37-3,.07-5.98.19-8.99.17s-5.86,0-8.78.16-5.79.55-8.67.89c-1.41.17-2.83.29-4.24.45-.84.1-1.87.44-2.69.15v.96c3.13-.59,6.31-.87,9.5-1.02,1.58-.08,3.17-.11,4.75-.17,1.48-.05,3.05-.01,4.49-.37.42-.1.49-.7.12-.91-.86-.49-2.07-.34-3.02-.34-1.63.01-3.25.02-4.87-.03-3.18-.1-6.36-.13-9.54-.19s-6.27-.18-9.41-.18c-1.59,0-3.18,0-4.78,0-1.47,0-2.94-.04-4.4.19-.6.1-.38.93.13.98,1.51.16,3.04-.09,4.55-.13,1.62-.04,3.24-.05,4.86-.07.99-.02,1.97-.06,2.96-.09,1.58-.04,3.15-.08,4.73-.06.68,0,1.37.02,2.05.07.24.02.48.04.71.07.41.07.16.14.11-.15l.48-.63c-3.55.2-7.11.04-10.66.23-1.67.09-3.33.23-5,.35-.87.06-1.74.11-2.61.17-.72.05-1.55.24-2.23-.07l-.25.93c6.02-.63,12.07-.33,18.1-.37.65,0,.64-.97,0-1-1.57-.08-3.18.16-4.74.26s-3.11.21-4.67.29c-3.11.17-6.33.04-9.42.5-.57.08-.42.98.13.98,6.99-.03,13.99-.05,20.98,0,.65,0,.64-.96,0-1-3.61-.23-7.22-.22-10.84-.21s-7.17-.24-10.76-.21c-.64,0-.64,1,0,1,7.11.03,14.21.72,21.33.61l-.13-.98c-2.01.36-4.13.35-6.16.39s-4.1.01-6.15.02c-1.94,0-3.88.03-5.82.03-.98,0-1.97.01-2.95-.03s-1.93-.19-2.9-.18c-.55,0-.7.86-.13.98,2.21.46,4.57.37,6.81.47s4.59.49,6.72,0c.63-.14.36-1.1-.27-.96-4.43.95-8.96-.12-13.42.46-.44.06-.88.14-1.32.22-.73.14-1.01.07-1.68-.21-.85-.36-1.75-.4-2.66-.39-1.12.01-2.24.16-3.36.21-1.24.06-2.48.02-3.72.02v1c2.64,0,5.28.05,7.92-.01,1.26-.03,2.52-.09,3.78-.15s2.43-.05,3.57-.48c.44-.17.51-.83,0-.96-.99-.27-2-.31-3.02-.36-1.25-.06-2.49-.2-3.74-.3-2.54-.21-5.08-.26-7.63-.17-.64.02-.65.98,0,1,2.55.06,5.15-.22,7.69-.36,1.26-.07,2.52-.15,3.78-.23,1.19-.08,2.55-.01,3.69-.41.38-.13.53-.71.12-.91-.92-.46-1.98-.43-2.98-.38-1.26.06-2.52.05-3.78.05-3.16,0-6.31-.02-9.47.04s-6.21.13-9.3.31c-1.49.08-2.97.19-4.46.33-.72.07-1.45.14-2.17.21-.41.04-.84.04-1.24.12-.37.07-.69.25-1.03-.02l-.22.84c3.4-.83,6.91-.85,10.39-.83,1.72,0,3.44,0,5.16.01,1.51,0,3.1.19,4.59-.06.37-.06.48-.6.22-.84-.8-.73-2.14-.48-3.12-.39-1.89.16-3.82.09-5.72.08v1c.89-.04,1.77.17,2.66.21.98.04,1.96.02,2.94,0,.92-.02,1.84-.04,2.76.03.7.05,2.3.13,2.78.77l.08-.61c-.39.32-1.34.12-1.8.07-.82-.08-1.64-.12-2.46-.17-2.18-.13-4.35-.38-6.53-.58-2.03-.19-4.06-.15-6.05.3-1.55.35-3.17.7-4.4,1.76-.13.11-.18.33-.13.49.33,1.11,2.03,1.08,2.94,1.07,1.1,0,2.56-.01,3.56-.55.33-.18.32-.69,0-.86-.72-.39-1.48-.3-2.26-.19-1.14.15-2.3.17-3.45.22s-2.31.13-3.46.09c-1.26-.04-2.52-.18-3.78-.16l.13.98c1.39-.58,3.08-.53,4.57-.67,1.59-.15,3.18-.33,4.76-.53s3.04-.38,4.55-.58c1.08-.15,2.24-.6,3.33-.47v-1c-2.1.06-4.2.13-6.3.28-1,.07-1.99.15-2.99.25s-2,.31-2.99.29v1c2.71-.02,5.41-.21,8.12-.21s5.44-.19,8.11.05l-.13-.98c-1.31.41-2.74.21-4.09.31-1.56.11-3.12.26-4.67.45s-3.12.43-4.69.54c-.84.05-1.68.07-2.52.08-.6,0-1.28.15-1.86-.02l.22.84c.51-.45,1.3-.66,1.86-.3.44.28.83.48,1.34.59,1.39.31,2.87.24,4.29.16,3.1-.18,6.26-.08,9.34-.51.57-.08.42-.99-.13-.98-2.15.01-4.29.07-6.43.23s-4.15.39-6.24.25v1c2.76-.32,5.54-.34,8.32-.4,1.4-.03,2.8-.07,4.19-.08,1.3,0,2.72.18,4-.05.5-.09.45-.84,0-.96-1.06-.29-2.15-.36-3.25-.4-1.24-.05-2.48-.13-3.72-.17-2.65-.09-5.31.01-7.96.09s-5.19.13-7.79.14c-1.27,0-2.54,0-3.81-.02-1.39-.02-2.79.04-4.16-.25l.12.91c1.02-.57,2.51-.3,3.65-.36,2.16-.11,4.32-.26,6.48-.37s4.28-.18,6.43-.16,4.36.19,6.54.2c.64,0,.64-1,0-1-2.79-.01-5.57-.23-8.36-.27s-5.61-.09-8.42-.16-5.49-.22-8.23-.18c-.47,0-.94.04-1.42.03s-1.57.1-1.9-.27l-.35.85c1.87-.16,3.8.13,5.67.21s3.88.14,5.82.24c4.01.21,8.06.24,12.03.9v-.96c-1.2.25-2.45.22-3.67.3-1.33.09-2.67.12-4.01.17-2.72.1-5.43.36-8.14.6s-5.24.43-7.84.78c-.32.04-.63.11-.95.13-.21.02-.73-.1-.71.13.02.32,1.36.04,1.65.01,1.35-.15,2.71-.13,4.07-.01,1.49.13,2.96.31,4.45.35,1.24.03,2.51.19,3.72-.18.35-.11.5-.57.22-.84-.81-.79-2.31-.59-3.35-.64-2.06-.09-4.12-.24-6.19-.3-1.53-.04-3.06-.09-4.6-.11-.51,0-2.69.12-2.89-.52l-.48.63c1.61.03,3.19.4,4.79.54,1.68.15,3.37.18,5.06.17s3.38.05,5.07,0c1.26-.03,2.79.1,3.98-.39.35-.15.55-.71.12-.91-1.03-.5-2.31-.48-3.43-.43-1.43.06-2.85.24-4.28.37-2.78.24-5.56.43-8.35.45s-5.54-.11-8.28-.46c-1.37-.18-2.68-.4-3.92-1.01-1.05-.52-1.97-.56-3.11-.29-.48.11-.48.85,0,.96,1.09.26,2.31.06,3.42.06,1.39,0,2.78.01,4.17-.03,2.76-.08,5.54-.21,8.26.38l-.12-.91c-.21.13-.99-.03-1.25-.03-.72,0-1.44,0-2.16,0-1.58.02-3.16.1-4.73.2-3.04.21-6.26.26-9.22,1.01-.52.13-.43.79,0,.96.7.28,1.51.26,2.25.24,1.1-.03,2.19-.11,3.28-.19,2.08-.15,4.53-.43,6.55.22l.24.08c.38.24.43.19.13-.16-.1-.04-.61.29-.71.33-.46.17-.95.29-1.43.38-1.15.21-2.36.28-3.52.18s-2.22-.43-3.34-.66-2.28-.32-3.43-.34c-.64-.01-.64.98,0,1,1.46.04,2.87.25,4.34.17s2.99-.21,4.5-.16c.55.02.7-.9.13-.98-1.21-.18-2.42-.29-3.63-.39-.63-.05-1.26-.1-1.89-.15-.48-.04-1.38.06-1.77-.24l.18.68c.07-.11.8.03.99.03.64.03,1.27.02,1.91.07,1.39.09,2.79.22,4.18.35s2.9.28,4.36.31,2.91-.13,4.37-.11v-1c-1.67.05-3.31-.26-4.96-.43s-3.18-.09-4.77-.02c-1.11.05-2.23.07-3.34.08-.49,0-2.12.17-2.37-.37l-.3.73c.77-.13,1.61-.05,2.39-.1.97-.06,1.94-.09,2.91-.12.89-.03,1.78-.07,2.67-.16s1.92-.4,2.82-.12l-.12-.91c-.6.38-1.42.21-2.09.2-.9-.02-1.81.04-2.71.07-2.02.07-4-.07-6.01-.19-1.7-.1-3.39-.07-5.09-.04-.87.02-2.23-.04-2.75.81-.13.2-.06.43.08.61.49.59,1.28.82,1.99.99.89.22,1.74.39,2.66.38v-1c-.65.03-1.26.22-1.9.35-.41.08-1.24.3-1.61.01l.08.61c.14-.21,3.03-.71,2.57-1.09-.12-.1-.93-.09-1.15-.15-.31-.08-.73-.18-.98-.41l.08.61c.1-.2.68-.34.88-.42.45-.17.91-.34,1.39-.34l-.43-.25c-.06-.13-.16.03-.32.11-.21.11-.46.17-.7.22-.32.06-.88.16-1.13-.13l.08.61c.1-.19.39-.27.54-.41.19-.16.28-.38.51-.48.18-.08,1.17-.01,1.3.22l.18-.68c-.7.3-1.38.5-2.14.53-.56.03-1.05.08-1.55.33-.31.16-.29.56-.1.79.73.86,2.34.18,3.26.06.86-.11,2.68-.05,3.12-.99.12-.24.07-.54-.18-.68-.51-.3-1.06-.38-1.64-.44-.75-.08-1.49-.24-2.25-.25-.57,0-.67.82-.13.98.47.14.93.19,1.41.23.64.05.64-.95,0-1h0Z"/>
  <path class="cls-12" d="m305.14,81.08l-.12.22c-.17.31.04.78.43.75.76-.06,1.27-.54,1.66-1.17.34-.54.54-1.22,1.01-1.66l-.85-.35c-.01.45-.19.87-.28,1.31-.07.33-.07.7-.27.99l.93.25c-.05-.63.47-1.24.47-1.91,0-1.02-1.09-1.14-1.87-1-.98.18-1.69.95-2.13,1.79-.42.8-.74,1.89.13,2.5.15.11.35.07.5,0,1.16-.54,2.23-1.44,2.74-2.64.21-.51-.34-1.01-.79-.61-.74.66-2.4,2.6-1.01,3.4,1.29.75,2.37-1.35,2.74-2.27.06-.15,0-.39-.13-.49-1.38-1.13-3.54,1.37-2.26,2.55s2.74-1.44,2.67-2.49c-.02-.3-.31-.6-.63-.48-1.27.45-1.96,2.62-.76,3.51,1.13.83,2.54-.21,2.85-1.36.28-1.03.11-2.41-.71-3.16-.45-.41-1.05-.54-1.64-.43-.56.1-.96.5-1.26.96-.56.87-.94,2.41-.04,3.2.43.38,1.11.49,1.6.18.46-.3.62-.88.62-1.4,0-1.12-.8-2.42-2.09-2.1-1.16.28-1.38,1.81-.85,2.71.29.49.82.82,1.4.8s1.02-.37,1.32-.81c.56-.8.79-2.23-.11-2.89-1.01-.73-2.47.03-3.07.95-.64,1-.54,2.37.49,3.06.61.41,1.43.52,2.13.29.75-.25,1.35-.82,1.84-1.42.65-.78,1.48-1.61,1.83-2.58.19-.51-.1-1.39-.8-1.01-.45.25-.62.83-.7,1.31-.08.54-.1,1.17.17,1.67.31.55.97.62,1.43.21.49-.43.72-1.11.96-1.7.26-.62.42-1.47-.39-1.75-1.22-.41-1.93.92-2.14,1.9-.16.7-.39,2.34.63,2.53,1.25.24,1.56-1.69,1.87-2.52.2-.54.5-1.34.11-1.86-.14-.19-.33-.28-.56-.23-.95.22-1.24,1.41-1.38,2.23-.13.75-.39,1.97.23,2.57.12.11.33.2.49.13.43-.18.62-.46.69-.92.06-.39.38-.63.44-1.02.11-.63-.86-.9-.96-.27-.05.28-.3.49-.39.76-.04.12-.05.24-.07.37,0,.04,0,.07-.02.11-.04.1-.03.1.04,0l.49.13c-.13-.12-.08-.63-.07-.83.01-.27.05-.49.1-.77.07-.41.18-1.42.68-1.54l-.56-.23c.2.27-.17.97-.27,1.25-.14.36-.22.73-.36,1.08-.07.19-.18.34-.28.51-.05.09-.07.01-.04.06.04.07.22.04.16.09,0,0-.02-.04-.03-.07,0-.03-.04-.19-.03-.15-.03-.19-.02-.38,0-.57.02-.39.11-.78.25-1.14.06-.16.14-.32.24-.45.07-.09.19-.19.25-.21.06-.02.04.02.14-.02.01,0,.08.02.08.02-.02,0-.05-.1-.06-.07-.09.19-.14.45-.22.65s-.17.41-.27.61c-.06.11-.12.23-.19.34-.02.03-.21.21-.21.25,0,.06,0-.04.07,0,.05.03.09.03.08.04,0,0-.02-.01-.03-.07-.06-.21-.07-.4-.07-.62,0-.23.04-.45.11-.67.02-.08.05-.13.08-.2.03-.08.09-.09-.02-.05l-.39-.05-.15-.2c0-.07,0-.08,0-.02.01,0,.01-.04-.03.06-.01.03-.08.17-.12.23-.14.25-.31.49-.49.72-.27.35-.56.69-.83,1.04-.43.54-.93,1.16-1.61,1.38-.53.17-1.26.02-1.57-.49-.5-.82.28-1.92,1.12-2.1.18-.04.44-.06.57,0s.18.15.22.32c.09.36-.03.84-.25,1.19-.19.3-.47.52-.78.39-.36-.15-.48-.62-.43-.97s.24-.61.62-.52.54.58.58.95c.02.2.02.41-.06.6-.04.11-.12.17-.17.16-.43-.05-.52-.39-.5-.79.04-.78.6-2.09,1.54-1.72s.93,1.97.53,2.68c-.18.33-.85.82-1.22.4s0-1.51.51-1.68l-.63-.48c0,.13-.02.2-.08.38-.07.22-.17.42-.28.62s-.23.38-.38.54c-.05.06-.12.12-.18.17-.09.06-.12.05-.11.05.09.04-.01-.06-.02-.13-.02-.17.1-.36.19-.5.11-.17.54-.64.74-.48l-.13-.49c-.03.08.03-.03-.01.03-.02.04-.04.09-.06.13-.04.09-.09.18-.14.27-.11.21-.24.42-.37.62s-.28.39-.47.53c-.05.04-.1.07-.15.09s-.04,0-.07,0c0,0-.07-.05-.06-.05-.05-.05-.04-.03.03.06v.03s.01-.14.03-.21c.08-.23.21-.44.35-.64.25-.37.54-.72.87-1.02l-.79-.61c-.45,1.06-1.35,1.8-2.38,2.28h.5c-.34-.24.25-1.2.4-1.43.36-.58.87-1.02,1.58-1.05.14,0,.26.01.39.03.05,0-.02-.05-.01-.03,0,0,0,.1,0,.16-.02.11-.06.22-.09.33-.16.47-.4.96-.36,1.47s.65.67.93.25c.25-.37.28-.8.37-1.23.11-.53.3-1.03.32-1.58.01-.45-.55-.64-.85-.35-.43.41-.67.97-.95,1.48-.21.39-.51,1.02-1.01,1.06l.43.75.12-.22c.31-.57-.56-1.07-.86-.5h0Z"/>
  <path class="cls-12" d="m312.49,76.72c-.04-.07-.08-.14-.08-.19l-.07.25c-.12.23-.19-.03-.06.05.02.01.06.02.08.03.12.05.21.13.34.17.31.09.58-.08.79-.29l-.79-.1c.33.58.15,1.43.12,2.07,0,.17-.06.31-.1.47-.05.23-.04.46-.05.69-.04.49-.13.97-.13,1.47,0,.64.99.64,1,0,.01-.49.15-1.05-.26-1.44-.27-.26-.74-.15-.84.22-.13.49-.18,1-.35,1.48-.14.39-.27.78-.07,1.18.09.18.37.3.56.23.41-.15.53-.44.8-.74.42-.48-.28-1.19-.71-.71-.09.1-.17.21-.25.33-.02.04-.07.14-.11.16l.56.23c.06.12-.01.1.04,0,.03-.07.05-.16.07-.23.04-.13.09-.26.13-.39.12-.42.17-.85.28-1.27l-.84.22s0,.2,0,.28c0,.15-.03.3-.03.45h1c0-.54.12-1.05.14-1.58.01-.41.13-.8.16-1.21.05-.8.15-1.68-.26-2.41-.16-.28-.56-.33-.79-.1-.16.13-.07.15.26.07-.04-.02-.07-.04-.11-.06-.1-.06-.21-.12-.32-.15-.21-.07-.44-.08-.65-.02-.25.07-.46.27-.54.53-.08.3.05.57.2.83.31.56,1.17.06.86-.5h0Z"/>
  <path class="cls-12" d="m312.27,76.94c.11-.12.12-.13.3-.11v-1c-.25,0-.51,0-.76,0-.64,0-.64.99,0,1,.5.01,1,.08,1.4-.29.3-.28.08-.9-.35-.85-.26.03-.53.15-.79.15-.31,0-.52,0-.78.22-.44.37.13,1.07.61.79.27-.16.52-.14.82-.14v-1c-.35,0-.73.08-1.07,0l.35.62c-.07.34-.18.12-.1.14.01,0,.08-.01.1-.01.05,0,.1,0,.16,0,.09,0-.14-.06.07.02.13.05.26.09.4.11.08.01.39-.03.4-.02l-.23-.56c-.12.47-.19.97-.14,1.45.02.22.07.43.13.65s.04.43.04.65c0,.55,0,1.1,0,1.65,0,.51.03,1.03-.15,1.52l.35-.35-.12.02c-.27.04-.42.37-.35.62.08.28.35.39.62.35l.12-.02c.18-.03.3-.2.35-.35.17-.5.18-1.03.18-1.55,0-.55,0-1.1,0-1.66,0-.26.02-.52,0-.78-.02-.22-.09-.41-.14-.62-.1-.43-.02-.9.08-1.32.05-.22-.04-.45-.23-.56-.13-.08-.26-.12-.41-.13-.12,0-.25.04-.37.03-.21-.02-.41-.13-.63-.14-.43-.02-.99.12-1.09.61-.06.26.07.54.35.62.44.11.89.05,1.34.04.64,0,.64-1,0-1-.48,0-.9.03-1.33.28l.61.79.06-.05-.22.13c.13-.05.34,0,.5-.02.18-.03.35-.11.52-.13l-.35-.85c-.1.09-.55,0-.69,0v1c.25,0,.51,0,.76,0,.65,0,.63-.95,0-1-.4-.03-.74.12-1.01.41-.44.47.26,1.18.71.71h0Z"/>
  <path class="cls-12" d="m17.12,126.47c-.75-.02-1.51-.08-2.26-.08-.64,0-.64.99,0,1,.57.01,1.15.02,1.72-.02.51-.03,1.03,0,1.54-.08.41-.07.5-.74.12-.91-.66-.3-1.34-.44-2.05-.57-.54-.1-1.12-.27-1.67-.13-.43.11-.48.69-.12.91.3.19.62.2.97.23.37.03.75.04,1.12.06.76.03,1.52.1,2.29.06.43-.02.67-.53.35-.85s-.65-.26-1.05-.31c-.43-.06-.87-.08-1.3-.1-.91-.04-1.82,0-2.73.11-.46.06-.73.66-.25.93.35.2.84.14,1.23.16.48.03.97.06,1.45.11.4.04.8.09,1.2.15s.76.07,1.01-.29c.19-.27,0-.65-.3-.73-.68-.2-1.4-.18-2.1-.18-.76,0-1.52-.07-2.28-.06-.64,0-.64,1,0,1s1.25-.02,1.87,0,1.25.08,1.87.08.64-1,0-1-1.26-.04-1.89-.06c-.57-.02-1.14,0-1.7-.13l-.13.98c.29.02.58.07.88.07.28,0,.56,0,.84,0,.53,0,1.08-.11,1.61-.07s.69-.89.13-.98c-.6-.09-1.19-.21-1.79-.25s-1.25-.06-1.87-.06v1c.62-.03,1.23.12,1.84.17.65.05,1.3.08,1.95.13v-1c-.56,0-1.12-.1-1.68-.16-.27-.03-.54-.05-.82-.07s-.53-.08-.8-.07c-.64.01-.64.99,0,1,.57,0,1.14-.02,1.7-.02.24,0,.48,0,.72.04.13.02.27.05.4.06.07,0,.18,0,.24.02l.12-.91c-.16.02-.35-.04-.5-.04-.18,0-.34,0-.51-.03-.36-.06-.7-.17-1.06-.21-.34-.04-.66-.02-1,.01-.36.03-.72-.01-1.07.11-.51.18-.46,1,.13.98.72-.02,1.43.04,2.15.07s1.44,0,2.17,0c.64,0,.64-.99,0-1-.76-.01-1.5-.14-2.26-.15-.36,0-.72-.02-1.07,0-.38.02-.75.07-1.13.08-.64.01-.64.99,0,1,.59,0,1.17.15,1.76.16.3,0,.6-.02.89-.01.27,0,.54.09.81.08.64-.03.65-.99,0-1-.73,0-1.44-.15-2.16-.2-.34-.02-.68-.03-1.02-.02-.1,0-.21.01-.31.02-.05,0-.1,0-.15,0-.09,0-.2-.05-.04.02v.86c.17-.07.47,0,.65,0,.35.01.69.03,1.04.06.71.06,1.41.16,2.12.17v-1c-.3,0-.6-.08-.9-.11-.34-.03-.68-.03-1.01-.05-.53-.03-1.04-.23-1.57-.1s-.42.8,0,.96c.38.15.8.11,1.19.09.48-.03.96.01,1.43.05.51.04.66-.69.25-.93-.45-.26-.98-.25-1.48-.3-.3-.03-.6-.05-.9-.05-.23,0-.47-.04-.68.09-.35.21-.32.83.12.91.21.04.42.07.63.07.1,0,.2,0,.3,0,.11,0,.2.06.01-.04l-.18-.18-.05-.19c-.17.62.79.89.96.27.1-.35-.02-.73-.4-.83-.32-.09-.68,0-1.01-.06l.12.91c-.14.03-.15.05-.05.04.04,0,.08,0,.12,0,.08,0,.17,0,.25,0,.25,0,.49.03.74.05.31.03.7,0,.98.16l.25-.93c-.45-.03-.9-.08-1.35-.05-.33.02-.69.08-1.01-.05v.96c.2-.05.42,0,.61.05.27.05.53.09.81.1.3.01.6.01.9.04s.59.11.9.11c.64-.01.64-.99,0-1-.78,0-1.56-.13-2.34-.19-.64-.05-1.37-.17-1.97.09-.33.14-.32.72,0,.86.26.12.52.12.81.1.33-.02.66-.02.99,0,.8.03,1.58.2,2.39.21v-1c-.27.01-.54-.07-.81-.08-.3,0-.6.02-.89.01-.59,0-1.17-.15-1.76-.16v1c.36,0,.71-.05,1.07-.08.38-.02.75,0,1.13,0,.76,0,1.5.13,2.26.15v-1c-.72,0-1.45.02-2.17,0s-1.43-.08-2.15-.07l.13.98c.31-.11.69-.07,1.02-.1s.64-.01.97.06c.36.08.71.18,1.08.2s.74.06,1.08,0c.41-.06.51-.75.12-.91-.26-.11-.5-.12-.77-.16-.29-.04-.57-.09-.87-.09-.64-.01-1.29.02-1.93.01v1c.53-.01,1.09.09,1.61.14.56.05,1.12.16,1.68.16.65,0,.63-.95,0-1s-1.3-.07-1.95-.13c-.61-.05-1.22-.2-1.84-.17s-.65,1,0,1c.59,0,1.17.02,1.76.06s1.09.14,1.64.22l.13-.98c-.53-.03-1.08.07-1.61.07-.28,0-.56,0-.84,0-.3,0-.58-.05-.88-.07-.57-.04-.67.85-.13.98.61.15,1.24.15,1.86.16.67.02,1.33.06,2,.06v-1c-.63,0-1.25-.06-1.87-.08s-1.25,0-1.87,0v1c.73-.01,1.45.06,2.18.06.65,0,1.31-.04,1.94.14l-.3-.73-.02.03.18-.18c.05-.04.11,0,.01-.02-.02,0-.14-.01-.11,0-.08,0-.25-.04-.36-.05-.4-.05-.81-.1-1.21-.14s-.78-.07-1.17-.09c-.19-.01-.37-.03-.56-.03-.07,0-.24.02-.28,0l-.25.93c.79-.1,1.59-.14,2.38-.12.37,0,.74.03,1.11.06.2.02.39.04.59.06.11.01.18.02.29,0,.07-.01-.01,0,0,0l.35-.85c-.69.04-1.37-.01-2.06-.05-.32-.02-.64-.02-.96-.04-.26-.02-.63.02-.86-.12l-.12.91c.36-.09.83.07,1.19.14.59.11,1.2.2,1.75.46l.12-.91c-.45.07-.94.02-1.39.05-.53.03-1.07.02-1.61.01v1c.76,0,1.51.05,2.26.08.64.02.64-.98,0-1h0Z"/>
  <path class="cls-12" d="m16.96,128.08c-1.34-.07-2.69-.08-4.03-.07-.64,0-.64.99,0,1,1.96.02,3.91-.24,5.87-.22v-1c-1.83.02-3.62-.24-5.46-.07-.63.06-.65,1,0,1,1.85-.01,3.76-.03,5.55.49v-.96c-.6.18-1.23.15-1.85.2-.66.04-1.31.09-1.97.12-1.2.07-2.41.11-3.59.35-.51.1-.45.83,0,.96,1.09.33,2.38.17,3.51.16,1.29-.01,2.59-.11,3.87.06l-.12-.91c-.51.29-1.05.2-1.61.24-.6.04-1.21.08-1.81.12-.57.04-1.13.07-1.69.11s-1.14.02-1.68.21c-.44.15-.51.84,0,.96.73.17,1.45.16,2.19.18s1.52.07,2.29.1,1.54.08,2.31.16c.34.04.63.06.97.02.31-.03.55-.02.71.26l.3-.73c-2.62.52-5.37.58-8.04.64-.54.01-.71.89-.13.98,1.18.19,2.46.03,3.65-.02.57-.02,1.14-.04,1.71-.04.3,0,.62.05.92,0,.1-.02.22-.05.32-.08.19-.07.11.02.1-.05l.35-.62c-1.11.24-2.23.39-3.36.51-.95.1-1.95.07-2.87.35-.43.13-.52.88,0,.96,2.09.33,4.3.07,6.3.89l-.22-.84c-.32.33-.9.23-1.33.26-.54.04-1.08.06-1.61.08-1.09.04-2.17.07-3.26.14-.64.04-.65,1.03,0,1,1-.05,2-.03,3.01,0,.45.02.9.05,1.35.07.48.03.91-.02,1.37.15l.13-.98c-1.97.22-4.02.07-5.96.54-.52.12-.43.8,0,.96.64.24,1.35.2,2.03.23.97.03,1.95.04,2.88.33l-.22-.84c-.33.28-.74.21-1.14.25-.49.05-.98.1-1.47.14-.82.07-1.77.02-2.54.29-.53.18-.45.96.13.98,1.7.06,3.43-.04,5.09.38l-.3-.73s-.47-.03-.52-.03c-.21,0-.41.03-.62.04-.42.02-.83.05-1.25.07-.86.05-1.72.1-2.57.19-.51.06-.73.87-.13.98.74.14,1.47.13,2.22.14.37,0,.74.02,1.11.05.14.01,1.01.16.94-.04l.35-.62c-.6.19-1.2.26-1.83.32s-1.2.15-1.81.09l.13.98c.97-.18,2.06-.11,3.04-.11.65,0,.64-.98,0-1-1.25-.05-2.55.25-3.79.39-.5.06-.67.63-.25.93.21.15.39.16.64.16.43,0,.87.03,1.3.05.75.03,1.5,0,2.25.08l-.35-.85s-.47.07-.63.08c-.34.02-.68.03-1.01.04-.69.02-1.38.03-2.07.1-.63.06-.66,1.01,0,1,1.5-.02,3.11-.09,4.59.18l.13-.98c-.91.05-1.83-.09-2.74,0-.38.04-.76.12-1.14.14-.26.01-.52,0-.74.15-.52.37-.02,1.24.5.86.1-.07.52-.04.63-.05.39-.05.78-.12,1.17-.14.77-.03,1.55.06,2.32.02.53-.03.72-.87.13-.98-1.57-.29-3.26-.24-4.86-.22v1c.86-.09,1.73-.09,2.59-.12.62-.02,1.32,0,1.83-.39.39-.3.02-.81-.35-.85-.63-.07-1.27-.04-1.9-.06-.31-.01-.61-.03-.92-.04-.19,0-.72.07-.86-.04l-.25.93c1.23-.14,2.55-.43,3.79-.39v-1c-1.08,0-2.24-.05-3.31.15-.6.11-.38.93.13.98.67.07,1.34-.04,2.01-.11s1.28-.14,1.89-.34c.24-.08.44-.35.35-.62-.29-.82-1.2-.64-1.91-.69-1.02-.07-2.07.04-3.07-.15l-.13.98c1.13-.12,2.27-.17,3.41-.24.53-.03,1.04-.01,1.57-.02.38,0,.64-.2.85-.5.18-.27,0-.66-.3-.73-1.76-.45-3.57-.36-5.36-.42l.13.98c.52-.18,1.13-.15,1.67-.2.5-.05,1.01-.09,1.51-.14.87-.09,1.71-.02,2.41-.61.31-.25.11-.73-.22-.84-.92-.29-1.87-.31-2.82-.35-.68-.03-1.43.04-2.08-.21v.96c1.85-.44,3.81-.29,5.69-.5.57-.06.67-.77.13-.98-.42-.16-.79-.16-1.23-.17-.51,0-1.02-.06-1.53-.08-1.08-.05-2.15-.07-3.23-.02v1c1.3-.08,2.6-.11,3.91-.17.6-.03,1.2-.07,1.79-.09.48-.01.88-.17,1.21-.51.29-.29.12-.7-.22-.84-2.01-.82-4.2-.55-6.3-.89v.96c.97-.29,2.05-.25,3.05-.36,1.07-.12,2.13-.27,3.18-.5.28-.06.4-.36.35-.62-.08-.4-.38-.67-.79-.7-.25-.02-.49.06-.74.09-.39.05-.8,0-1.19,0-.73,0-1.45.05-2.18.07-.8.03-1.68.15-2.48.02l-.13.98c2.76-.07,5.59-.13,8.31-.68.32-.06.45-.47.3-.73-.27-.46-.7-.74-1.24-.77-.36-.02-.71.05-1.08.01-.48-.04-.95-.09-1.43-.13-.87-.06-1.75-.09-2.63-.13s-1.82.03-2.69-.18v.96c.57-.2,1.24-.16,1.84-.2.64-.04,1.27-.08,1.91-.12.6-.04,1.2-.11,1.8-.1.55,0,1.01-.07,1.49-.35.34-.19.32-.85-.12-.91-1.23-.17-2.45-.12-3.69-.1-.59,0-1.17,0-1.76,0-.64,0-1.31.06-1.93-.13v.96c1.24-.25,2.5-.26,3.76-.34.62-.04,1.24-.08,1.87-.12s1.19-.03,1.79-.21c.47-.14.48-.83,0-.96-1.87-.54-3.88-.54-5.82-.53v1c1.83-.16,3.63.09,5.46.07.64,0,.64-.99,0-1-1.96-.02-3.91.24-5.87.22v1c1.34,0,2.69,0,4.03.07.64.03.64-.97,0-1h0Z"/>
  <path class="cls-12" d="m15.38,140.1c.41,0,.83.02,1.24,0v-1c-.82.08-1.65.13-2.46.24-.24.03-.39.33-.36.55.04.26.24.4.49.43.94.11,1.87,0,2.81,0l-.13-.98c-.43.06-.88.1-1.31.11s-.88,0-1.3.14c-.21.06-.37.26-.37.48,0,.2.15.45.37.48.45.07.89.05,1.34.02s.92-.02,1.37-.12l-.27-.96c-.46.1-.95.08-1.42.08-.18,0-.37,0-.55.02-.22.02-.48.05-.64.23-.23.27-.17.75.22.84s.74.08,1.13.05.8-.01,1.2-.01v-1c-.32,0-.65,0-.97,0-.27,0-.59.01-.78.23-.29.31-.09.86.35.85.74,0,1.48.03,2.21,0l-.13-.98c-.49.1-.99.08-1.49.07-.54-.01-1.09.02-1.63,0-.25-.01-.46.2-.49.43s.11.51.36.55c.41.07.82.11,1.23.12s.84.03,1.24-.05c.18-.03.28-.07.46-.06.15,0,.3,0,.45.02.41.02.78-.1.92-.52.08-.26-.1-.55-.35-.62-.27-.07-.53.09-.62.35.04-.11.11-.17.2-.21.07,0,.07,0,.01,0-.05,0-.1,0-.15,0-.13,0-.25,0-.38-.02-.17,0-.34,0-.51.02-.14.02-.25.06-.38.07-.62.04-1.26.03-1.87-.07l-.13.98c.56.03,1.13,0,1.7.01s1.13.02,1.69-.1.43-1.01-.13-.98c-.74.04-1.47,0-2.21,0l.35.85s-.18.13-.09.07c-.07,0-.07,0-.01,0h.04c.08,0,.16,0,.24,0,.29,0,.58,0,.86,0,.64,0,.64-1,0-1-.38,0-.75-.02-1.13,0-.32.02-.64.05-.93,0l.22.84s0-.02-.07.05c-.09.03-.11.04-.06.03.03,0,.06-.01.08-.02-.14.03-.04,0,0,0,.05,0,.1,0,.16-.01.17,0,.33,0,.5,0,.51,0,1.04,0,1.55-.12.26-.06.42-.36.35-.62-.07-.27-.35-.41-.62-.35-.36.08-.74.06-1.1.09s-.72.07-1.07.02v.96c.37-.11.75-.09,1.16-.11.49-.02.97-.07,1.46-.14.24-.03.39-.33.36-.55-.04-.24-.24-.43-.49-.43-.94,0-1.88.12-2.81,0l.13.98c.73-.1,1.47-.13,2.2-.21.27-.03.5-.21.5-.5,0-.26-.23-.51-.5-.5-.41.02-.83,0-1.24,0-.64,0-.64,1,0,1h0Z"/>
  <rect class="cls-10" x="94.01" y="110.29" width="116.95" height="40.34"/>
  <line class="cls-1" x1="87.12" y1="158.57" x2="94.01" y2="150.62"/>
  <line class="cls-1" x1="217.85" y1="158.57" x2="210.96" y2="150.62"/>
</svg>